<svg xmlns="http://www.w3.org/2000/svg" width="107.753" height="107.753" viewBox="0 0 107.753 107.753">
  <g id="Group_270" data-name="Group 270" transform="translate(-505.235 -605.854)">
    <g id="Group_145" data-name="Group 145" transform="translate(520.963 621.581)">
      <path id="Path_89" data-name="Path 89" d="M36.67-35.272l2.7,26.919A11.827,11.827,0,0,0,47.9.179l26.919,2.7L47.9,5.576a11.824,11.824,0,0,0-8.53,8.532l-2.7,26.919-2.7-26.919a11.824,11.824,0,0,0-8.53-8.532l-26.919-2.7L25.441.179a11.827,11.827,0,0,0,8.53-8.532Z" transform="translate(1.478 35.272)" fill="red"/>
    </g>
    <g id="Group_265" data-name="Group 265" transform="translate(505.235 656.906) rotate(-42)">
      <path id="Path_89-2" data-name="Path 89" d="M36.67-35.272l2.7,26.919A11.827,11.827,0,0,0,47.9.179l26.919,2.7L47.9,5.576a11.824,11.824,0,0,0-8.53,8.532l-2.7,26.919-2.7-26.919a11.824,11.824,0,0,0-8.53-8.532l-26.919-2.7L25.441.179a11.827,11.827,0,0,0,8.53-8.532Z" transform="translate(1.478 35.272)" fill="red"/>
    </g>
  </g>
</svg>
