<svg xmlns="http://www.w3.org/2000/svg" width="55.477" height="65.981" viewBox="0 0 55.477 65.981">
  <g id="Group_74" data-name="Group 74" transform="translate(-505.778 -318.242)">
    <g id="Group_62" data-name="Group 62" transform="translate(505.778 318.242)">
      <g id="Group_60" data-name="Group 60" transform="translate(1.347 1.347)">
        <path id="Path_60" data-name="Path 60" d="M555.374,353.986c.7-2.795,2.438-11.145-.073-17.584a7.592,7.592,0,0,1,0,.871c-2.01-5.976-7.326-10.865-19.159-12.533,0,0-22.48-.852-23.8,28.015-1.626,35.689,24.432,30.714,24.432,30.714,10.9-2.9,14.713-13.481,15.93-18.537C563.166,364.476,562.758,351.367,555.374,353.986Z" transform="translate(-510.121 -322.583)" fill="#070203"/>
        <path id="Path_61" data-name="Path 61" d="M531.761,384.023a22.323,22.323,0,0,1-14.683-5.177c-6.385-5.531-9.321-14.963-8.726-28.032,1.4-30.645,25.781-30.086,26.031-30.071l.219.019c7.092,1,12.5,3.23,16.189,6.656l1.4.314,3.275,6.044c2.094,5.372,1.542,11.763.791,15.932a5.3,5.3,0,0,1,3.1,1.589,7.338,7.338,0,0,1,1.077,7.821,9.872,9.872,0,0,1-7.865,5.96c-1.6,5.539-5.987,15.678-17.079,18.632l-.151.034A20.558,20.558,0,0,1,531.761,384.023Zm2.253-58.974c-2.259,0-20.207.8-21.353,25.961-.531,11.657,1.893,19.915,7.2,24.545,5.944,5.179,13.813,4.089,14.61,3.963,4.129-1.125,11.38-4.82,14.3-16.933l.38-1.578,1.623-.071c3.94-.172,5.27-2.45,5.659-3.421a3.255,3.255,0,0,0-.184-3.23c-.485-.5-1.355-.337-2-.108l-3.8,1.346.984-3.9a35.508,35.508,0,0,0,.931-12.664l-.953-2.835c-2.042-6.07-7.7-9.691-17.293-11.068Z" transform="translate(-508.277 -320.74)" fill="#070203"/>
      </g>
      <g id="Group_61" data-name="Group 61" transform="translate(0)">
        <path id="Path_62" data-name="Path 62" d="M532.434,383.91a21.488,21.488,0,0,1-14.134-4.983c-6.19-5.362-9.031-14.575-8.448-27.384,1.361-29.857,24.948-29.31,25.193-29.3l.137.012c7.957,1.122,13.728,3.813,17.24,8.026l1.068,1.081,1.914,3.4c2.181,5.593,1.386,12.379.58,16.387h.066a4.62,4.62,0,0,1,3.419,1.4,6.623,6.623,0,0,1,.909,6.959,9.19,9.19,0,0,1-7.751,5.536c-1.429,5.249-5.6,15.634-16.651,18.576l-.094.022A19.907,19.907,0,0,1,532.434,383.91Zm2.264-58.977c-2.475,0-20.975.873-22.153,26.732-.544,11.944,1.986,20.431,7.52,25.224,6.342,5.493,14.618,4.224,15.273,4.112,4.3-1.158,11.89-4.977,14.914-17.535l.238-.987,1.014-.044c4.41-.192,5.926-2.811,6.374-3.928a3.991,3.991,0,0,0-.352-4.09,2.646,2.646,0,0,0-2.852-.31l-2.372.841.615-2.441a36.259,36.259,0,0,0,.933-13.059l-.974-2.9c-2.151-6.4-8.039-10.2-17.995-11.617Z" transform="translate(-507.621 -320.085)" fill="#070203"/>
        <path id="Path_63" data-name="Path 63" d="M530.591,384.223a23.494,23.494,0,0,1-15.547-5.51c-6.713-5.815-9.806-15.61-9.19-29.112,1.461-32.049,27.163-31.37,27.435-31.357l.35.032c8.434,1.189,14.67,4.119,18.536,8.709l1.209,1.224,2.186,3.927c1.975,5.063,1.772,10.872,1.069,15.43a6.629,6.629,0,0,1,2.541,1.646c2.137,2.225,2.682,5.945,1.356,9.255a11.163,11.163,0,0,1-8.06,6.622c-1.729,5.477-6.42,15.744-17.788,18.772l-.249.057A21.917,21.917,0,0,1,530.591,384.223Zm2.264-58.977a19.486,19.486,0,0,0-10.352,3.3c-5.939,4.033-9.185,11.225-9.648,21.378-.512,11.251,1.768,19.156,6.778,23.5,5.373,4.654,12.466,3.773,13.4,3.631,3.827-1.062,10.532-4.543,13.274-15.93l.618-2.565,2.636-.115c3.041-.133,4.1-1.671,4.466-2.576a2.533,2.533,0,0,0,.14-1.709,2.27,2.27,0,0,0-.62.142l-6.17,2.188,1.6-6.346a34.637,34.637,0,0,0,.917-12.03l-.91-2.71c-.684-2.033-2.761-8.206-16.116-10.15Z" transform="translate(-505.778 -318.242)" fill="#070203"/>
      </g>
    </g>
    <g id="Group_73" data-name="Group 73" transform="translate(509.117 321.661)">
      <path id="Path_64" data-name="Path 64" d="M536.478,383.316s-26.058,4.975-24.432-30.714c1.316-28.867,23.8-28.015,23.8-28.015,27.836,3.924,19.622,25.671,17.089,37.463,0,0-1.964,17.407-16.452,21.266" transform="translate(-511.973 -324.585)" fill="#e7cbba"/>
      <g id="Group_63" data-name="Group 63" transform="translate(36.955 28.897)">
        <path id="Path_65" data-name="Path 65" d="M583.834,389.5c11.037-.325,10.219-14.621,1.965-10.6-1.862.981-5.609,4.606-5.249,7.229.16,1.022,2.163,2.724,3.284,3.367" transform="translate(-580.526 -378.19)" fill="#e7cbba"/>
        <path id="Path_66" data-name="Path 66" d="M587.049,390.395a7.252,7.252,0,0,0,3.759-2.983c.266-.467.775-1.79-.107-1.983-.788-.14-2.2,1.9-2.571,2.437a6.254,6.254,0,0,0-1.081,2.529" transform="translate(-583.533 -381.524)" fill="#c09378"/>
      </g>
      <g id="Group_64" data-name="Group 64" transform="translate(22.275 22.286)">
        <path id="Path_67" data-name="Path 67" d="M564.953,367.384c-1.881.073-3.755-.182-5.635-.053-1.811.126-3.869,1.783-5.6.961a.676.676,0,0,1-.2-1.129c1.151-1.23,3.5-1.218,5.1-1.236,2.13-.024,4.244.866,6.326,1.185.145.022.171.265.009.271Z" transform="translate(-553.294 -365.927)" fill="#3f3e3e"/>
      </g>
      <g id="Group_65" data-name="Group 65" transform="translate(1.952 23.148)">
        <path id="Path_68" data-name="Path 68" d="M515.732,368.4a14.807,14.807,0,0,1,5.024-.823,15.536,15.536,0,0,1,3.259.061,1.154,1.154,0,0,1-.344,2.28,13.327,13.327,0,0,1-2.474-.879c-1.64-.572-3.7-.007-5.419-.215a.222.222,0,0,1-.046-.425Z" transform="translate(-515.594 -367.527)" fill="#3f3e3e"/>
      </g>
      <g id="Group_69" data-name="Group 69" transform="translate(10.206 45.871)">
        <g id="Group_67" data-name="Group 67">
          <g id="Group_66" data-name="Group 66" transform="translate(0 0.307)">
            <path id="Path_69" data-name="Path 69" d="M545.249,410.249s-1.585,2.759-7.423,3.112-6.921-2.792-6.921-2.792S536.892,413.166,545.249,410.249Z" transform="translate(-530.906 -410.249)" fill="#cfa58c"/>
          </g>
          <path id="Path_70" data-name="Path 70" d="M545.249,409.986s-8.582,3.84-14.343.319c0,0,3.619-.972,6.489.589C537.395,410.894,539.937,408.943,545.249,409.986Z" transform="translate(-530.906 -409.679)" fill="#c09378"/>
        </g>
        <g id="Group_68" data-name="Group 68" transform="translate(4.252 4.406)">
          <path id="Path_71" data-name="Path 71" d="M544.623,418.122a9.115,9.115,0,0,1-5.69.482c-.272-.063-.109-.386.175-.335a9.249,9.249,0,0,0,5.26-.383c.248-.12.5.112.255.236Z" transform="translate(-538.794 -417.853)" fill="#956b52"/>
        </g>
      </g>
      <path id="Path_72" data-name="Path 72" d="M564.777,379.784a45.736,45.736,0,0,0-5.678-1.348,3.744,3.744,0,0,0-4.166,1.985S556.309,382.546,564.777,379.784Z" transform="translate(-531.774 -349.371)" fill="#818181"/>
      <g id="Group_70" data-name="Group 70" transform="translate(25.044 29.027)">
        <path id="Path_73" data-name="Path 73" d="M558.43,379.88A1.314,1.314,0,0,0,559.8,381.2a1.451,1.451,0,0,0,1.394-1.448,1.383,1.383,0,1,0-2.762.133Z" transform="translate(-558.43 -378.432)" fill="#393939"/>
        <path id="Path_74" data-name="Path 74" d="M560.591,379.869a.581.581,0,0,0-.707.449.64.64,0,0,0,.475.748.609.609,0,0,0,.231-1.2Z" transform="translate(-559.093 -379.087)" fill="#070203"/>
        <path id="Path_75" data-name="Path 75" d="M559.69,379.612a.358.358,0,0,0-.438.273.394.394,0,0,0,.292.461.374.374,0,1,0,.146-.734Z" transform="translate(-558.804 -378.971)" fill="#fff"/>
      </g>
      <path id="Path_76" data-name="Path 76" d="M526.577,380.751a13.935,13.935,0,0,0-4.638-1.445,3.744,3.744,0,0,0-4.166,1.985S518.109,383.513,526.577,380.751Z" transform="translate(-514.646 -349.772)" fill="#818181"/>
      <g id="Group_71" data-name="Group 71" transform="translate(5.012 29.496)">
        <path id="Path_77" data-name="Path 77" d="M521.27,380.75a1.314,1.314,0,0,0,1.368,1.315,1.451,1.451,0,0,0,1.394-1.448,1.383,1.383,0,1,0-2.762.133Z" transform="translate(-521.27 -379.302)" fill="#393939"/>
        <path id="Path_78" data-name="Path 78" d="M523.431,380.739a.58.58,0,0,0-.707.449.64.64,0,0,0,.476.748.609.609,0,0,0,.231-1.2Z" transform="translate(-521.933 -379.957)" fill="#070203"/>
        <path id="Path_79" data-name="Path 79" d="M522.53,380.482a.358.358,0,0,0-.438.273.394.394,0,0,0,.292.461.374.374,0,1,0,.146-.734Z" transform="translate(-521.644 -379.841)" fill="#fff"/>
      </g>
      <circle id="Ellipse_4" data-name="Ellipse 4" cx="0.913" cy="0.913" r="0.913" transform="translate(14.459 25.088)" fill="#9e8071"/>
      <circle id="Ellipse_5" data-name="Ellipse 5" cx="0.913" cy="0.913" r="0.913" transform="translate(7.745 37.547)" fill="#9e8071"/>
      <circle id="Ellipse_6" data-name="Ellipse 6" cx="0.607" cy="0.607" r="0.607" transform="translate(23.799 34.481)" fill="#9e8071"/>
      <path id="Path_80" data-name="Path 80" d="M588.776,346.224s.436,5.029-3.518,7.312c0,0,.735,9,3.331,11.234C588.589,364.77,591.837,354.074,588.776,346.224Z" transform="translate(-545.752 -334.559)" fill="#3f3e3e"/>
      <g id="Group_72" data-name="Group 72" transform="translate(12.568 28.764)">
        <path id="Path_81" data-name="Path 81" d="M538.461,378.041c1.515,3.758,1.878,5.025-1.382,8.332-1.247,1.265-2.214,1.958-1.606,3.807,1.1,3.342,5,2.135,5.508-.35l-.482-.015c.569,2.436,3.811,2.1,3.379-.444a.143.143,0,0,0-.283.026c.041,1.9-2.358,2.46-2.611.372-.025-.206-.374-.291-.462-.07-.608,1.515-1.519,1.844-3.434,1.221-2.7-.877-.006-3.462.916-4.454,3.1-3.334,2.45-4.97.609-8.479-.044-.084-.187-.037-.15.053Z" transform="translate(-535.287 -377.944)" fill="#c09378"/>
      </g>
    </g>
  </g>
</svg>
