<svg xmlns="http://www.w3.org/2000/svg" width="65.844" height="65.844" viewBox="0 0 65.844 65.844">
  <g id="Group_77" data-name="Group 77" transform="translate(537.877 -324.268)">
    <circle id="Ellipse_7" data-name="Ellipse 7" cx="32.62" cy="32.62" r="32.62" transform="translate(-537.574 324.571)"/>
    <circle id="Ellipse_8" data-name="Ellipse 8" cx="29.025" cy="29.025" r="29.025" transform="translate(-533.98 328.166)" fill="#ffd01f"/>
    <circle id="Ellipse_9" data-name="Ellipse 9" cx="23.28" cy="23.28" r="23.28" transform="translate(-537.877 357.191) rotate(-45)" fill="#efbb18"/>
    <path id="Path_82" data-name="Path 82" d="M-483.453,366.73a27.788,27.788,0,0,0-6.188-3.2V354.98A7,7,0,0,1-484.3,358.5c.207.415.444.848.692,1.269a1.431,1.431,0,0,0,1.391.786c.982,0,2.154-.428,2.154-2.462a4.913,4.913,0,0,0-.406-1.534,6.545,6.545,0,0,0-.768-1.531c-1.7-2.369-4.527-3.687-8.4-3.921v-.362c0-1.844-1.025-2.231-1.885-2.231-.878,0-1.923.387-1.923,2.231v.409c-5.616.5-8.463,2.836-8.463,6.938a6.813,6.813,0,0,0,2.846,5.587,22.5,22.5,0,0,0,5.616,2.894v10.413a8.434,8.434,0,0,1-3.426-1.6,6.164,6.164,0,0,1-2.239-3.414,2.128,2.128,0,0,0-2.144-1.845c-.842,0-1.846.407-1.846,2.347a6.779,6.779,0,0,0,1.358,3.516,11.291,11.291,0,0,0,8.3,4.948v1.345c0,1.844,1.046,2.231,1.923,2.231.86,0,1.885-.387,1.885-2.231V380.99a13.164,13.164,0,0,0,6.8-2.27,6.972,6.972,0,0,0,2.775-5.822A7.638,7.638,0,0,0-483.453,366.73Zm-.726,6.13c0,2.5-1.787,3.906-5.462,4.279V368.05C-486.016,369.58-484.179,371.2-484.179,372.86Zm-9.27-17.851v7.133c-2.885-1.139-4.347-2.45-4.347-3.9C-497.8,356.427-496.373,355.368-493.449,355.009Z" transform="translate(-13.371 -9.322)" fill="#ffde73"/>
  </g>
</svg>
