<svg id="Group_79" data-name="Group 79" xmlns="http://www.w3.org/2000/svg" width="92.794" height="92.795" viewBox="0 0 92.794 92.795">
  <path id="Path_83" data-name="Path 83" d="M-111.052-38.072l-2.733,10.729c-4.177,9.982-9.419,16.169-11.963,16.169h-68.415a9.683,9.683,0,0,1-9.683-9.683v-69.4c0-5.347,3.766-7.531,9.683-8.876l18.8-4.7c5.348,0,54.452,11.457,54.452,16.8Z" transform="translate(203.846 103.968)" fill="#c7deff"/>
  <path id="Path_84" data-name="Path 84" d="M-197.861,1.75a.707.707,0,0,1-1,0h0a.707.707,0,0,1,0-1l17.507-17.507a.706.706,0,0,1,1,0h0a.7.7,0,0,1,0,1Z" transform="translate(202.923 87.195)" fill="#fff"/>
  <rect id="Rectangle_393" data-name="Rectangle 393" width="72.352" height="72.353" rx="12" transform="translate(20.442 0)" fill="#fff"/>
  <path id="Path_85" data-name="Path 85" d="M-137.021-77.331l-13.968,24.193h27.935Z" transform="translate(193.639 98.851)" fill="#c7deff"/>
</svg>
