<svg id="Group_80" data-name="Group 80" xmlns="http://www.w3.org/2000/svg" width="92.794" height="92.795" viewBox="0 0 92.794 92.795">
  <path id="Path_86" data-name="Path 86" d="M125.566-58.344l-2.733,10.729c-4.177,9.982-9.419,16.169-11.962,16.169H42.455a9.683,9.683,0,0,1-9.683-9.683v-69.4c0-5.347,3.766-7.531,9.683-8.876l18.806-4.7c5.347,0,54.452,11.456,54.452,16.8Z" transform="translate(-32.772 124.24)" fill="#c7deff"/>
  <path id="Path_87" data-name="Path 87" d="M38.757-18.522a.707.707,0,0,1-1,0h0a.707.707,0,0,1,0-1L55.264-37.029a.707.707,0,0,1,1,0h0a.706.706,0,0,1,0,1Z" transform="translate(-33.695 107.467)" fill="#fff"/>
  <rect id="Rectangle_394" data-name="Rectangle 394" width="72.352" height="72.353" rx="12" transform="translate(20.442 0)" fill="#fff"/>
  <path id="Path_88" data-name="Path 88" d="M99.6-71.411,85.629-95.6h27.935Z" transform="translate(-42.979 118.738)" fill="#c7deff"/>
</svg>
