<svg xmlns="http://www.w3.org/2000/svg" width="612.149" height="435.515" viewBox="0 0 612.149 435.515">
  <g id="Group_286" data-name="Group 286" transform="matrix(0.875, -0.485, 0.485, 0.875, 237.209, -485.852)">
    <path id="Path_399" data-name="Path 399" d="M5.357,569.393S-102.585,667.969-294.754,633.3s-292.079,76.374-292.079,76.374l25.308-2.041-5.442,20.527c61.573-40.1,62.224-88.5,287.544-75.693S25.064,587.724,25.064,587.724l-29.692-.709Z" fill="#fff"/>
    <path id="Path_400" data-name="Path 400" d="M55.757,569.393S-52.186,667.969-244.355,633.3c-71.534-13.891-126.05-2.647-126.05-2.647s60.414,2.483,112.621,6.375c81.606,6.084,186.548,3.491,261.362-16.256,50.451-13.317,71.885-33.05,71.885-33.05l-29.692-.709Z" transform="translate(-50.399)" fill="#d8d8d8"/>
  </g>
</svg>
