<svg xmlns="http://www.w3.org/2000/svg" width="86.123" height="86.123" viewBox="0 0 86.123 86.123">
  <g id="Group_136" data-name="Group 136" transform="matrix(0.999, -0.052, 0.052, 0.999, 517.912, -349.718)">
    <circle id="Ellipse_8" data-name="Ellipse 8" cx="38.016" cy="38.016" r="38.016" transform="translate(-532.772 329.373)" fill="#ffd01f"/>
    <circle id="Ellipse_9" data-name="Ellipse 9" cx="30.491" cy="30.491" r="30.491" transform="translate(-537.877 367.389) rotate(-45)" fill="#efbb18"/>
    <path id="Path_82" data-name="Path 82" d="M-477.366,372.373a36.4,36.4,0,0,0-8.1-4.185v-11.2a9.167,9.167,0,0,1,7,4.6c.271.543.581,1.111.907,1.662a1.875,1.875,0,0,0,1.822,1.029c1.287,0,2.821-.56,2.821-3.224a6.434,6.434,0,0,0-.531-2.009,8.572,8.572,0,0,0-1.006-2c-2.226-3.1-5.929-4.829-11.008-5.136v-.474c0-2.415-1.342-2.922-2.468-2.922-1.15,0-2.519.507-2.519,2.922v.536c-7.356.659-11.084,3.715-11.084,9.087a8.924,8.924,0,0,0,3.728,7.318,29.472,29.472,0,0,0,7.356,3.79V385.8a11.047,11.047,0,0,1-4.487-2.089,8.073,8.073,0,0,1-2.933-4.472,2.787,2.787,0,0,0-2.809-2.417c-1.1,0-2.418.533-2.418,3.074a8.88,8.88,0,0,0,1.779,4.6c2.384,3.626,6.039,5.8,10.867,6.48v1.762c0,2.415,1.37,2.922,2.519,2.922,1.126,0,2.468-.507,2.468-2.922v-1.694a17.242,17.242,0,0,0,8.912-2.974,9.131,9.131,0,0,0,3.634-7.625C-472.925,377.346-474.419,374.628-477.366,372.373Zm-.95,8.029c0,3.28-2.341,5.116-7.154,5.6V374.1C-480.722,376.107-478.316,378.226-478.316,380.4Zm-12.142-23.381v9.342c-3.778-1.492-5.694-3.209-5.694-5.107C-496.151,358.88-494.288,357.493-490.458,357.022Z" transform="translate(-6.742 -4.7)" fill="#ffde73"/>
  </g>
</svg>
