<svg xmlns="http://www.w3.org/2000/svg" width="135.052" height="152.002" viewBox="0 0 135.052 152.002">
  <g id="Group_95" data-name="Group 95" transform="translate(-416 -758.317)">
    <g id="Group_89" data-name="Group 89" transform="translate(976.877 471.05)">
      <circle id="Ellipse_7" data-name="Ellipse 7" cx="40.128" cy="40.128" r="40.128" transform="translate(-537.505 324.641)" fill="#fff"/>
      <circle id="Ellipse_8" data-name="Ellipse 8" cx="35.706" cy="35.706" r="35.706" transform="translate(-533.083 329.063)" fill="#ffd01f"/>
      <circle id="Ellipse_9" data-name="Ellipse 9" cx="28.638" cy="28.638" r="28.638" transform="translate(-537.877 364.768) rotate(-45)" fill="#efbb18"/>
      <path id="Path_82" data-name="Path 82" d="M-478.93,370.923a34.183,34.183,0,0,0-7.612-3.931V356.469a8.61,8.61,0,0,1,6.57,4.325c.254.51.546,1.043.852,1.561a1.761,1.761,0,0,0,1.711.967c1.208,0,2.65-.526,2.65-3.029a6.046,6.046,0,0,0-.5-1.887,8.053,8.053,0,0,0-.945-1.883c-2.09-2.914-5.569-4.536-10.339-4.824v-.445c0-2.268-1.261-2.745-2.318-2.745-1.08,0-2.366.476-2.366,2.745v.5c-6.909.619-10.41,3.489-10.41,8.535a8.381,8.381,0,0,0,3.5,6.873,27.682,27.682,0,0,0,6.909,3.56v12.81a10.376,10.376,0,0,1-4.214-1.963,7.582,7.582,0,0,1-2.754-4.2,2.618,2.618,0,0,0-2.638-2.27c-1.036,0-2.271.5-2.271,2.887a8.34,8.34,0,0,0,1.671,4.325,13.89,13.89,0,0,0,10.207,6.087v1.655c0,2.268,1.286,2.745,2.366,2.745,1.058,0,2.318-.476,2.318-2.745v-1.591a16.194,16.194,0,0,0,8.37-2.793,8.577,8.577,0,0,0,3.413-7.162C-474.759,375.594-476.162,373.041-478.93,370.923Zm-.893,7.541c0,3.081-2.2,4.8-6.719,5.264v-11.18C-482.082,374.43-479.822,376.42-479.822,378.464Zm-11.4-21.96v8.774c-3.549-1.4-5.348-3.014-5.348-4.8C-496.574,358.25-494.823,356.947-491.226,356.5Z" transform="translate(-8.445 -5.888)" fill="#ffde73"/>
    </g>
    <g id="Group_94" data-name="Group 94">
      <g id="Group_90" data-name="Group 90" transform="translate(425.478 793.589)">
        <path id="Path_89" data-name="Path 89" d="M37.522-35.272l2.76,27.52A12.091,12.091,0,0,0,49,.97l27.52,2.76L49,6.488a12.088,12.088,0,0,0-8.72,8.722l-2.76,27.52-2.76-27.52a12.088,12.088,0,0,0-8.72-8.722L-1.478,3.73,26.042.97a12.091,12.091,0,0,0,8.72-8.722Z" transform="translate(0 0)" fill="#fff"/>
        <circle id="Ellipse_12" data-name="Ellipse 12" cx="25.167" cy="25.167" r="25.167" transform="translate(13.725 -22.15)" fill="#fff" opacity="0.3"/>
      </g>
      <g id="Group_91" data-name="Group 91" transform="translate(471.478 870.791)">
        <path id="Path_89-2" data-name="Path 89" d="M35.921-35.272l2.647,26.39A11.6,11.6,0,0,0,46.93-.518L73.32,2.129,46.93,4.773a11.591,11.591,0,0,0-8.362,8.364l-2.647,26.39-2.647-26.39a11.591,11.591,0,0,0-8.362-8.364L-1.478,2.129,24.912-.518a11.6,11.6,0,0,0,8.362-8.364Z" transform="translate(0 0)" fill="#fff"/>
        <circle id="Ellipse_12-2" data-name="Ellipse 12" cx="24.134" cy="24.134" r="24.134" transform="translate(13.101 -22.689)" fill="#fff" opacity="0.3"/>
      </g>
      <g id="Group_92" data-name="Group 92" transform="translate(417.478 854.191)">
        <path id="Path_89-3" data-name="Path 89" d="M34.048-35.272,36.562-10.2a11.014,11.014,0,0,0,7.944,7.945L69.574.256,44.506,2.768a11.011,11.011,0,0,0-7.944,7.945L34.048,35.782,31.534,10.714A11.011,11.011,0,0,0,23.59,2.768L-1.478.256,23.59-2.258A11.014,11.014,0,0,0,31.534-10.2Z" transform="translate(0 0)" fill="#fff"/>
        <circle id="Ellipse_12-3" data-name="Ellipse 12" cx="22.925" cy="22.925" r="22.925" transform="translate(12.371 -23.319)" fill="#fff" opacity="0.3"/>
      </g>
      <g id="Group_93" data-name="Group 93" transform="translate(481.478 818.191)">
        <path id="Path_89-4" data-name="Path 89" d="M34.048-35.272,36.562-10.2a11.014,11.014,0,0,0,7.944,7.945L69.574.256,44.506,2.768a11.011,11.011,0,0,0-7.944,7.945L34.048,35.782,31.534,10.714A11.011,11.011,0,0,0,23.59,2.768L-1.478.256,23.59-2.258A11.014,11.014,0,0,0,31.534-10.2Z" transform="translate(0 0)" fill="#fff"/>
        <circle id="Ellipse_12-4" data-name="Ellipse 12" cx="22.925" cy="22.925" r="22.925" transform="translate(12.371 -23.319)" fill="#fff" opacity="0.3"/>
      </g>
    </g>
  </g>
</svg>
