<svg xmlns="http://www.w3.org/2000/svg" width="699.123" height="401.5" viewBox="0 0 699.123 401.5">
  <g id="Group_365" data-name="Group 365" transform="translate(-610.494 -585.37)">
    <g id="Group_321" data-name="Group 321" transform="translate(-703)">
      <g id="Group_315" data-name="Group 315" transform="translate(860.283 55.708)">
        <path id="Path_401" data-name="Path 401" d="M618.2,863.413s-16.911,12.375-50.729,12.375c-33.713,0-50.724-12.375-50.724-12.375V531.8s17.962,8.876,50.724,8.876c35.72,0,50.729-8.876,50.729-8.876Z" transform="translate(75.204 8.012)" fill="#debb3e"/>
        <path id="Path_402" data-name="Path 402" d="M516.748,539.808s13.232,7.564,48.1,8.852,53.358-8.852,53.358-8.852-6.87-10.146-50.729-10.146S516.748,539.808,516.748,539.808Z" transform="translate(75.204 0)" fill="#efe46e"/>
        <g id="Group_287" data-name="Group 287" transform="translate(591.058 565.405)">
          <path id="Path_403" data-name="Path 403" d="M568.178,547.972c-36.3,0-51.014-6.675-51.618-6.965l1.788-3.827c.138.062,14.648,6.571,49.83,6.571Z" transform="translate(-516.56 -537.18)" fill="#fff"/>
        </g>
        <g id="Group_288" data-name="Group 288" transform="translate(591.201 647)">
          <path id="Path_404" data-name="Path 404" d="M568.065,565.187c-32.986,0-50.739-6.618-51.475-6.9l1.5-3.946c.171.062,17.853,6.618,49.973,6.618Z" transform="translate(-516.59 -554.342)" fill="#fff"/>
        </g>
        <g id="Group_289" data-name="Group 289" transform="translate(591.201 660.436)">
          <path id="Path_405" data-name="Path 405" d="M568.065,568.012c-32.986,0-50.739-6.613-51.475-6.9l1.5-3.946c.171.067,17.853,6.623,49.973,6.623Z" transform="translate(-516.59 -557.168)" fill="#fff"/>
        </g>
        <g id="Group_290" data-name="Group 290" transform="translate(642.676 794.395)">
          <path id="Path_406" data-name="Path 406" d="M527.417,596.022V591.8c38.306,0,49.526-6.394,49.636-6.452l2.2,3.6C578.788,589.238,567.325,596.022,527.417,596.022Z" transform="translate(-527.417 -585.344)" fill="#fff"/>
        </g>
        <g id="Group_291" data-name="Group 291" transform="translate(642.676 780.65)">
          <path id="Path_407" data-name="Path 407" d="M527.417,593.136v-4.222c38.306,0,49.526-6.395,49.631-6.461l2.206,3.6C578.788,586.347,567.325,593.136,527.417,593.136Z" transform="translate(-527.417 -582.453)" fill="#fff"/>
        </g>
        <g id="Group_292" data-name="Group 292" transform="translate(642.676 692.975)">
          <path id="Path_408" data-name="Path 408" d="M527.417,574.695v-4.227c38.306,0,49.526-6.395,49.631-6.456l2.206,3.6C578.788,567.906,567.325,574.695,527.417,574.695Z" transform="translate(-527.417 -564.012)" fill="#fff"/>
        </g>
        <g id="Group_293" data-name="Group 293" transform="translate(642.676 629.813)">
          <path id="Path_409" data-name="Path 409" d="M527.417,561.41v-4.226c38.306,0,49.526-6.395,49.631-6.457l2.206,3.6C578.788,554.621,567.325,561.41,527.417,561.41Z" transform="translate(-527.417 -550.727)" fill="#fff"/>
        </g>
        <g id="Group_294" data-name="Group 294" transform="translate(591.201 717.469)">
          <path id="Path_410" data-name="Path 410" d="M568.065,580.013c-32.986,0-50.739-6.618-51.475-6.9l1.5-3.946c.171.066,17.853,6.628,49.973,6.628Z" transform="translate(-516.59 -569.164)" fill="#fff"/>
        </g>
        <g id="Group_295" data-name="Group 295" transform="translate(591.172 613.201)">
          <path id="Path_411" data-name="Path 411" d="M571.473,559.333c-33.942,0-54.048-7.835-54.889-8.168l1.559-3.932c.2.081,20.268,7.878,53.33,7.878,30.114,0,46.25-7.731,46.412-7.807l1.864,3.789C619.069,551.431,602.671,559.333,571.473,559.333Z" transform="translate(-516.584 -547.233)" fill="#fff"/>
        </g>
        <g id="Group_296" data-name="Group 296" transform="translate(591.172 596.081)">
          <path id="Path_412" data-name="Path 412" d="M571.473,555.732c-33.942,0-54.048-7.84-54.889-8.173l1.559-3.927c.2.076,20.268,7.873,53.33,7.873,30.114,0,46.25-7.731,46.412-7.807l1.864,3.789C619.069,547.83,602.671,555.732,571.473,555.732Z" transform="translate(-516.584 -543.632)" fill="#fff"/>
        </g>
        <g id="Group_297" data-name="Group 297" transform="translate(591.172 765.493)">
          <path id="Path_413" data-name="Path 413" d="M571.473,591.365c-33.942,0-54.048-7.84-54.889-8.173l1.559-3.927c.2.076,20.268,7.873,53.33,7.873,30.114,0,46.25-7.731,46.412-7.807l1.864,3.789C619.069,583.458,602.671,591.365,571.473,591.365Z" transform="translate(-516.584 -579.265)" fill="#fff"/>
        </g>
        <g id="Group_298" data-name="Group 298" transform="translate(591.172 831.16)">
          <path id="Path_414" data-name="Path 414" d="M571.473,605.177c-33.942,0-54.048-7.835-54.889-8.173l1.559-3.927c.2.081,20.268,7.873,53.33,7.873,30.114,0,46.25-7.73,46.412-7.8l1.864,3.789C619.069,597.275,602.671,605.177,571.473,605.177Z" transform="translate(-516.584 -593.077)" fill="#fff"/>
        </g>
        <path id="Path_415" data-name="Path 415" d="M527.417,875.789c33.818,0,50.729-12.375,50.729-12.375V531.8s-15.01,8.876-50.729,8.876Z" transform="translate(115.259 8.012)" fill="#debb3e" opacity="0.5"/>
        <path id="Path_416" data-name="Path 416" d="M637.911,779.3S621,791.679,587.186,791.679c-33.713,0-50.729-12.375-50.729-12.375V557.84s17.967,8.881,50.729,8.881c35.72,0,50.724-8.881,50.724-8.881Z" transform="translate(149.199 105.791)" fill="#debb3e"/>
        <path id="Path_417" data-name="Path 417" d="M536.457,565.852s13.237,7.569,48.1,8.857,53.354-8.857,53.354-8.857-6.87-10.146-50.724-10.146S536.457,565.852,536.457,565.852Z" transform="translate(149.199 97.779)" fill="#efe46e"/>
        <g id="Group_299" data-name="Group 299" transform="translate(684.762 689.233)">
          <path id="Path_418" data-name="Path 418" d="M587.892,574.017c-36.3,0-51.019-6.675-51.623-6.965l1.788-3.828c.138.062,14.653,6.566,49.835,6.566Z" transform="translate(-536.269 -563.225)" fill="#fff"/>
        </g>
        <g id="Group_300" data-name="Group 300" transform="translate(684.904 770.827)">
          <path id="Path_419" data-name="Path 419" d="M587.779,591.232c-32.986,0-50.744-6.618-51.48-6.9l1.5-3.946c.171.062,17.857,6.618,49.978,6.618Z" transform="translate(-536.299 -580.387)" fill="#fff"/>
        </g>
        <g id="Group_301" data-name="Group 301" transform="translate(684.904 784.263)">
          <path id="Path_420" data-name="Path 420" d="M587.779,594.058c-32.986,0-50.744-6.613-51.48-6.9l1.5-3.946c.171.067,17.857,6.618,49.978,6.618Z" transform="translate(-536.299 -583.213)" fill="#fff"/>
        </g>
        <g id="Group_302" data-name="Group 302" transform="translate(736.385 816.802)">
          <path id="Path_421" data-name="Path 421" d="M547.127,600.74v-4.227c38.306,0,49.522-6.395,49.626-6.456l2.206,3.6C598.493,593.946,587.035,600.74,547.127,600.74Z" transform="translate(-547.127 -590.057)" fill="#fff"/>
        </g>
        <g id="Group_303" data-name="Group 303" transform="translate(736.385 753.636)">
          <path id="Path_422" data-name="Path 422" d="M547.127,587.459v-4.227c38.306,0,49.522-6.395,49.626-6.461l2.206,3.6C598.493,580.665,587.035,587.459,547.127,587.459Z" transform="translate(-547.127 -576.771)" fill="#fff"/>
        </g>
        <g id="Group_304" data-name="Group 304" transform="translate(684.904 841.297)">
          <path id="Path_423" data-name="Path 423" d="M587.779,606.059c-32.986,0-50.744-6.618-51.48-6.9l1.5-3.946c.171.067,17.857,6.628,49.978,6.628Z" transform="translate(-536.299 -595.209)" fill="#fff"/>
        </g>
        <g id="Group_305" data-name="Group 305" transform="translate(684.876 737.024)">
          <path id="Path_424" data-name="Path 424" d="M591.182,585.382c-33.937,0-54.048-7.84-54.889-8.173l1.559-3.932c.2.081,20.273,7.883,53.33,7.883,30.119,0,46.25-7.735,46.412-7.812l1.864,3.789C638.778,577.475,622.385,585.382,591.182,585.382Z" transform="translate(-536.293 -573.277)" fill="#fff"/>
        </g>
        <g id="Group_306" data-name="Group 306" transform="translate(684.876 719.908)">
          <path id="Path_425" data-name="Path 425" d="M591.182,581.777c-33.937,0-54.048-7.84-54.889-8.173l1.559-3.927c.2.076,20.273,7.873,53.33,7.873,30.119,0,46.25-7.731,46.412-7.807l1.864,3.789C638.778,573.875,622.385,581.777,591.182,581.777Z" transform="translate(-536.293 -569.677)" fill="#fff"/>
        </g>
        <path id="Path_426" data-name="Path 426" d="M547.127,791.679c33.818,0,50.724-12.375,50.724-12.375V557.84s-15,8.881-50.724,8.881Z" transform="translate(189.258 105.791)" fill="#debb3e" opacity="0.5"/>
        <path id="Path_427" data-name="Path 427" d="M598.359,779.835s-16.911,12.376-50.729,12.376c-33.713,0-50.724-12.376-50.724-12.376V558.372s17.967,8.876,50.724,8.876c35.719,0,50.729-8.876,50.729-8.876Z" transform="translate(0.706 107.788)" fill="#debb3e"/>
        <path id="Path_428" data-name="Path 428" d="M496.905,566.384s13.231,7.569,48.1,8.857,53.358-8.857,53.358-8.857-6.87-10.146-50.729-10.146S496.905,566.384,496.905,566.384Z" transform="translate(0.706 99.776)" fill="#efe46e"/>
        <g id="Group_307" data-name="Group 307" transform="translate(496.717 691.757)">
          <path id="Path_429" data-name="Path 429" d="M548.335,574.549c-36.3,0-51.009-6.675-51.618-6.96l1.788-3.832c.138.067,14.648,6.57,49.83,6.57Z" transform="translate(-496.717 -563.756)" fill="#fff"/>
        </g>
        <g id="Group_308" data-name="Group 308" transform="translate(496.86 773.352)">
          <path id="Path_430" data-name="Path 430" d="M548.222,591.767c-32.981,0-50.739-6.618-51.475-6.9l1.5-3.946c.176.066,17.853,6.627,49.973,6.627Z" transform="translate(-496.747 -580.918)" fill="#fff"/>
        </g>
        <g id="Group_309" data-name="Group 309" transform="translate(496.86 786.788)">
          <path id="Path_431" data-name="Path 431" d="M548.222,594.593c-32.981,0-50.739-6.618-51.475-6.9l1.5-3.946c.176.067,17.853,6.628,49.973,6.628Z" transform="translate(-496.747 -583.744)" fill="#fff"/>
        </g>
        <g id="Group_310" data-name="Group 310" transform="translate(496.86 843.826)">
          <path id="Path_432" data-name="Path 432" d="M548.222,606.59c-32.981,0-50.739-6.618-51.475-6.9l1.5-3.946c.176.066,17.853,6.627,49.973,6.627Z" transform="translate(-496.747 -595.741)" fill="#fff"/>
        </g>
        <g id="Group_311" data-name="Group 311" transform="translate(496.831 739.558)">
          <path id="Path_433" data-name="Path 433" d="M551.63,585.905c-33.941,0-54.048-7.835-54.889-8.168l1.559-3.927c.2.076,20.268,7.873,53.33,7.873,30.114,0,46.255-7.73,46.412-7.807l1.864,3.789C599.226,578,582.833,585.905,551.63,585.905Z" transform="translate(-496.741 -573.81)" fill="#fff"/>
        </g>
        <g id="Group_312" data-name="Group 312" transform="translate(496.831 722.437)">
          <path id="Path_434" data-name="Path 434" d="M551.63,582.309c-33.941,0-54.048-7.84-54.889-8.173l1.559-3.927c.2.081,20.268,7.873,53.33,7.873,30.114,0,46.255-7.73,46.412-7.8l1.864,3.789C599.226,574.407,582.833,582.309,551.63,582.309Z" transform="translate(-496.741 -570.209)" fill="#fff"/>
        </g>
        <g id="Group_313" data-name="Group 313" transform="translate(548.335 819.327)">
          <path id="Path_435" data-name="Path 435" d="M507.574,601.271v-4.227c38.306,0,49.526-6.39,49.636-6.456l2.206,3.6C558.945,594.482,547.482,601.271,507.574,601.271Z" transform="translate(-507.574 -590.588)" fill="#fff"/>
        </g>
        <g id="Group_314" data-name="Group 314" transform="translate(548.335 756.17)">
          <path id="Path_436" data-name="Path 436" d="M507.574,587.982v-4.227c38.306,0,49.526-6.395,49.64-6.452l2.2,3.6C558.945,581.2,547.482,587.982,507.574,587.982Z" transform="translate(-507.574 -577.304)" fill="#fff"/>
        </g>
        <path id="Path_437" data-name="Path 437" d="M507.574,792.211c33.818,0,50.729-12.376,50.729-12.376V558.372s-15.01,8.876-50.729,8.876Z" transform="translate(40.761 107.788)" fill="#debb3e" opacity="0.5"/>
      </g>
      <g id="Group_316" data-name="Group 316" transform="matrix(0.999, -0.052, 0.052, 0.999, 1831.406, 521.621)">
        <circle id="Ellipse_8" data-name="Ellipse 8" cx="38.016" cy="38.016" r="38.016" transform="translate(-532.772 329.373)" fill="#ffd01f"/>
        <circle id="Ellipse_9" data-name="Ellipse 9" cx="30.491" cy="30.491" r="30.491" transform="translate(-537.877 367.389) rotate(-45)" fill="#efbb18"/>
        <path id="Path_82" data-name="Path 82" d="M-477.366,372.373a36.4,36.4,0,0,0-8.1-4.185v-11.2a9.167,9.167,0,0,1,7,4.6c.271.543.581,1.111.907,1.662a1.875,1.875,0,0,0,1.822,1.029c1.287,0,2.821-.56,2.821-3.224a6.434,6.434,0,0,0-.531-2.009,8.572,8.572,0,0,0-1.006-2c-2.226-3.1-5.929-4.829-11.008-5.136v-.474c0-2.415-1.342-2.922-2.468-2.922-1.15,0-2.519.507-2.519,2.922v.536c-7.356.659-11.084,3.715-11.084,9.087a8.924,8.924,0,0,0,3.728,7.318,29.472,29.472,0,0,0,7.356,3.79V385.8a11.047,11.047,0,0,1-4.487-2.089,8.073,8.073,0,0,1-2.933-4.472,2.787,2.787,0,0,0-2.809-2.417c-1.1,0-2.418.533-2.418,3.074a8.88,8.88,0,0,0,1.779,4.6c2.384,3.626,6.039,5.8,10.867,6.48v1.762c0,2.415,1.37,2.922,2.519,2.922,1.126,0,2.468-.507,2.468-2.922v-1.694a17.242,17.242,0,0,0,8.912-2.974,9.131,9.131,0,0,0,3.634-7.625C-472.925,377.346-474.419,374.628-477.366,372.373Zm-.95,8.029c0,3.28-2.341,5.116-7.154,5.6V374.1C-480.722,376.107-478.316,378.226-478.316,380.4Zm-12.142-23.381v9.342c-3.778-1.492-5.694-3.209-5.694-5.107C-496.151,358.88-494.288,357.493-490.458,357.022Z" transform="translate(-6.742 -4.7)" fill="#ffde73"/>
      </g>
      <g id="Group_317" data-name="Group 317" transform="matrix(0.656, 0.755, -0.755, 0.656, 2064.417, 1062.769)">
        <circle id="Ellipse_8-2" data-name="Ellipse 8" cx="38.016" cy="38.016" r="38.016" transform="translate(-532.772 329.373)" fill="#ffd01f"/>
        <circle id="Ellipse_9-2" data-name="Ellipse 9" cx="30.491" cy="30.491" r="30.491" transform="translate(-537.877 367.389) rotate(-45)" fill="#efbb18"/>
        <path id="Path_82-2" data-name="Path 82" d="M-477.366,372.373a36.4,36.4,0,0,0-8.1-4.185v-11.2a9.167,9.167,0,0,1,7,4.6c.271.543.581,1.111.907,1.662a1.875,1.875,0,0,0,1.822,1.029c1.287,0,2.821-.56,2.821-3.224a6.434,6.434,0,0,0-.531-2.009,8.572,8.572,0,0,0-1.006-2c-2.226-3.1-5.929-4.829-11.008-5.136v-.474c0-2.415-1.342-2.922-2.468-2.922-1.15,0-2.519.507-2.519,2.922v.536c-7.356.659-11.084,3.715-11.084,9.087a8.924,8.924,0,0,0,3.728,7.318,29.472,29.472,0,0,0,7.356,3.79V385.8a11.047,11.047,0,0,1-4.487-2.089,8.073,8.073,0,0,1-2.933-4.472,2.787,2.787,0,0,0-2.809-2.417c-1.1,0-2.418.533-2.418,3.074a8.88,8.88,0,0,0,1.779,4.6c2.384,3.626,6.039,5.8,10.867,6.48v1.762c0,2.415,1.37,2.922,2.519,2.922,1.126,0,2.468-.507,2.468-2.922v-1.694a17.242,17.242,0,0,0,8.912-2.974,9.131,9.131,0,0,0,3.634-7.625C-472.925,377.346-474.419,374.628-477.366,372.373Zm-.95,8.029c0,3.28-2.341,5.116-7.154,5.6V374.1C-480.722,376.107-478.316,378.226-478.316,380.4Zm-12.142-23.381v9.342c-3.778-1.492-5.694-3.209-5.694-5.107C-496.151,358.88-494.288,357.493-490.458,357.022Z" transform="translate(-6.742 -4.7)" fill="#ffde73"/>
      </g>
      <g id="Group_318" data-name="Group 318" transform="translate(1147.283 55.708)">
        <path id="Path_401-2" data-name="Path 401" d="M618.2,863.413s-16.911,12.375-50.729,12.375c-33.713,0-50.724-12.375-50.724-12.375V531.8s17.962,8.876,50.724,8.876c35.72,0,50.729-8.876,50.729-8.876Z" transform="translate(75.204 8.012)" fill="#debb3e"/>
        <path id="Path_402-2" data-name="Path 402" d="M516.748,539.808s13.232,7.564,48.1,8.852,53.358-8.852,53.358-8.852-6.87-10.146-50.729-10.146S516.748,539.808,516.748,539.808Z" transform="translate(75.204 0)" fill="#efe46e"/>
        <g id="Group_287-2" data-name="Group 287" transform="translate(591.058 565.405)">
          <path id="Path_403-2" data-name="Path 403" d="M568.178,547.972c-36.3,0-51.014-6.675-51.618-6.965l1.788-3.827c.138.062,14.648,6.571,49.83,6.571Z" transform="translate(-516.56 -537.18)" fill="#fff"/>
        </g>
        <g id="Group_288-2" data-name="Group 288" transform="translate(591.201 647)">
          <path id="Path_404-2" data-name="Path 404" d="M568.065,565.187c-32.986,0-50.739-6.618-51.475-6.9l1.5-3.946c.171.062,17.853,6.618,49.973,6.618Z" transform="translate(-516.59 -554.342)" fill="#fff"/>
        </g>
        <g id="Group_289-2" data-name="Group 289" transform="translate(591.201 660.436)">
          <path id="Path_405-2" data-name="Path 405" d="M568.065,568.012c-32.986,0-50.739-6.613-51.475-6.9l1.5-3.946c.171.067,17.853,6.623,49.973,6.623Z" transform="translate(-516.59 -557.168)" fill="#fff"/>
        </g>
        <g id="Group_290-2" data-name="Group 290" transform="translate(642.676 794.395)">
          <path id="Path_406-2" data-name="Path 406" d="M527.417,596.022V591.8c38.306,0,49.526-6.394,49.636-6.452l2.2,3.6C578.788,589.238,567.325,596.022,527.417,596.022Z" transform="translate(-527.417 -585.344)" fill="#fff"/>
        </g>
        <g id="Group_291-2" data-name="Group 291" transform="translate(642.676 780.65)">
          <path id="Path_407-2" data-name="Path 407" d="M527.417,593.136v-4.222c38.306,0,49.526-6.395,49.631-6.461l2.206,3.6C578.788,586.347,567.325,593.136,527.417,593.136Z" transform="translate(-527.417 -582.453)" fill="#fff"/>
        </g>
        <g id="Group_292-2" data-name="Group 292" transform="translate(642.676 692.975)">
          <path id="Path_408-2" data-name="Path 408" d="M527.417,574.695v-4.227c38.306,0,49.526-6.395,49.631-6.456l2.206,3.6C578.788,567.906,567.325,574.695,527.417,574.695Z" transform="translate(-527.417 -564.012)" fill="#fff"/>
        </g>
        <g id="Group_293-2" data-name="Group 293" transform="translate(642.676 629.813)">
          <path id="Path_409-2" data-name="Path 409" d="M527.417,561.41v-4.226c38.306,0,49.526-6.395,49.631-6.457l2.206,3.6C578.788,554.621,567.325,561.41,527.417,561.41Z" transform="translate(-527.417 -550.727)" fill="#fff"/>
        </g>
        <g id="Group_294-2" data-name="Group 294" transform="translate(591.201 717.469)">
          <path id="Path_410-2" data-name="Path 410" d="M568.065,580.013c-32.986,0-50.739-6.618-51.475-6.9l1.5-3.946c.171.066,17.853,6.628,49.973,6.628Z" transform="translate(-516.59 -569.164)" fill="#fff"/>
        </g>
        <g id="Group_295-2" data-name="Group 295" transform="translate(591.172 613.201)">
          <path id="Path_411-2" data-name="Path 411" d="M571.473,559.333c-33.942,0-54.048-7.835-54.889-8.168l1.559-3.932c.2.081,20.268,7.878,53.33,7.878,30.114,0,46.25-7.731,46.412-7.807l1.864,3.789C619.069,551.431,602.671,559.333,571.473,559.333Z" transform="translate(-516.584 -547.233)" fill="#fff"/>
        </g>
        <g id="Group_296-2" data-name="Group 296" transform="translate(591.172 596.081)">
          <path id="Path_412-2" data-name="Path 412" d="M571.473,555.732c-33.942,0-54.048-7.84-54.889-8.173l1.559-3.927c.2.076,20.268,7.873,53.33,7.873,30.114,0,46.25-7.731,46.412-7.807l1.864,3.789C619.069,547.83,602.671,555.732,571.473,555.732Z" transform="translate(-516.584 -543.632)" fill="#fff"/>
        </g>
        <g id="Group_297-2" data-name="Group 297" transform="translate(591.172 765.493)">
          <path id="Path_413-2" data-name="Path 413" d="M571.473,591.365c-33.942,0-54.048-7.84-54.889-8.173l1.559-3.927c.2.076,20.268,7.873,53.33,7.873,30.114,0,46.25-7.731,46.412-7.807l1.864,3.789C619.069,583.458,602.671,591.365,571.473,591.365Z" transform="translate(-516.584 -579.265)" fill="#fff"/>
        </g>
        <g id="Group_298-2" data-name="Group 298" transform="translate(591.172 831.16)">
          <path id="Path_414-2" data-name="Path 414" d="M571.473,605.177c-33.942,0-54.048-7.835-54.889-8.173l1.559-3.927c.2.081,20.268,7.873,53.33,7.873,30.114,0,46.25-7.73,46.412-7.8l1.864,3.789C619.069,597.275,602.671,605.177,571.473,605.177Z" transform="translate(-516.584 -593.077)" fill="#fff"/>
        </g>
        <path id="Path_415-2" data-name="Path 415" d="M527.417,875.789c33.818,0,50.729-12.375,50.729-12.375V531.8s-15.01,8.876-50.729,8.876Z" transform="translate(115.259 8.012)" fill="#debb3e" opacity="0.5"/>
        <path id="Path_416-2" data-name="Path 416" d="M637.911,779.3S621,791.679,587.186,791.679c-33.713,0-50.729-12.375-50.729-12.375V557.84s17.967,8.881,50.729,8.881c35.72,0,50.724-8.881,50.724-8.881Z" transform="translate(149.199 105.791)" fill="#debb3e"/>
        <path id="Path_417-2" data-name="Path 417" d="M536.457,565.852s13.237,7.569,48.1,8.857,53.354-8.857,53.354-8.857-6.87-10.146-50.724-10.146S536.457,565.852,536.457,565.852Z" transform="translate(149.199 97.779)" fill="#efe46e"/>
        <g id="Group_299-2" data-name="Group 299" transform="translate(684.762 689.233)">
          <path id="Path_418-2" data-name="Path 418" d="M587.892,574.017c-36.3,0-51.019-6.675-51.623-6.965l1.788-3.828c.138.062,14.653,6.566,49.835,6.566Z" transform="translate(-536.269 -563.225)" fill="#fff"/>
        </g>
        <g id="Group_300-2" data-name="Group 300" transform="translate(684.904 770.827)">
          <path id="Path_419-2" data-name="Path 419" d="M587.779,591.232c-32.986,0-50.744-6.618-51.48-6.9l1.5-3.946c.171.062,17.857,6.618,49.978,6.618Z" transform="translate(-536.299 -580.387)" fill="#fff"/>
        </g>
        <g id="Group_301-2" data-name="Group 301" transform="translate(684.904 784.263)">
          <path id="Path_420-2" data-name="Path 420" d="M587.779,594.058c-32.986,0-50.744-6.613-51.48-6.9l1.5-3.946c.171.067,17.857,6.618,49.978,6.618Z" transform="translate(-536.299 -583.213)" fill="#fff"/>
        </g>
        <g id="Group_302-2" data-name="Group 302" transform="translate(736.385 816.802)">
          <path id="Path_421-2" data-name="Path 421" d="M547.127,600.74v-4.227c38.306,0,49.522-6.395,49.626-6.456l2.206,3.6C598.493,593.946,587.035,600.74,547.127,600.74Z" transform="translate(-547.127 -590.057)" fill="#fff"/>
        </g>
        <g id="Group_303-2" data-name="Group 303" transform="translate(736.385 753.636)">
          <path id="Path_422-2" data-name="Path 422" d="M547.127,587.459v-4.227c38.306,0,49.522-6.395,49.626-6.461l2.206,3.6C598.493,580.665,587.035,587.459,547.127,587.459Z" transform="translate(-547.127 -576.771)" fill="#fff"/>
        </g>
        <g id="Group_304-2" data-name="Group 304" transform="translate(684.904 841.297)">
          <path id="Path_423-2" data-name="Path 423" d="M587.779,606.059c-32.986,0-50.744-6.618-51.48-6.9l1.5-3.946c.171.067,17.857,6.628,49.978,6.628Z" transform="translate(-536.299 -595.209)" fill="#fff"/>
        </g>
        <g id="Group_305-2" data-name="Group 305" transform="translate(684.876 737.024)">
          <path id="Path_424-2" data-name="Path 424" d="M591.182,585.382c-33.937,0-54.048-7.84-54.889-8.173l1.559-3.932c.2.081,20.273,7.883,53.33,7.883,30.119,0,46.25-7.735,46.412-7.812l1.864,3.789C638.778,577.475,622.385,585.382,591.182,585.382Z" transform="translate(-536.293 -573.277)" fill="#fff"/>
        </g>
        <g id="Group_306-2" data-name="Group 306" transform="translate(684.876 719.908)">
          <path id="Path_425-2" data-name="Path 425" d="M591.182,581.777c-33.937,0-54.048-7.84-54.889-8.173l1.559-3.927c.2.076,20.273,7.873,53.33,7.873,30.119,0,46.25-7.731,46.412-7.807l1.864,3.789C638.778,573.875,622.385,581.777,591.182,581.777Z" transform="translate(-536.293 -569.677)" fill="#fff"/>
        </g>
        <path id="Path_426-2" data-name="Path 426" d="M547.127,791.679c33.818,0,50.724-12.375,50.724-12.375V557.84s-15,8.881-50.724,8.881Z" transform="translate(189.258 105.791)" fill="#debb3e" opacity="0.5"/>
        <path id="Path_427-2" data-name="Path 427" d="M598.359,779.835s-16.911,12.376-50.729,12.376c-33.713,0-50.724-12.376-50.724-12.376V558.372s17.967,8.876,50.724,8.876c35.719,0,50.729-8.876,50.729-8.876Z" transform="translate(0.706 107.788)" fill="#debb3e"/>
        <path id="Path_428-2" data-name="Path 428" d="M496.905,566.384s13.231,7.569,48.1,8.857,53.358-8.857,53.358-8.857-6.87-10.146-50.729-10.146S496.905,566.384,496.905,566.384Z" transform="translate(0.706 99.776)" fill="#efe46e"/>
        <g id="Group_307-2" data-name="Group 307" transform="translate(496.717 691.757)">
          <path id="Path_429-2" data-name="Path 429" d="M548.335,574.549c-36.3,0-51.009-6.675-51.618-6.96l1.788-3.832c.138.067,14.648,6.57,49.83,6.57Z" transform="translate(-496.717 -563.756)" fill="#fff"/>
        </g>
        <g id="Group_308-2" data-name="Group 308" transform="translate(496.86 773.352)">
          <path id="Path_430-2" data-name="Path 430" d="M548.222,591.767c-32.981,0-50.739-6.618-51.475-6.9l1.5-3.946c.176.066,17.853,6.627,49.973,6.627Z" transform="translate(-496.747 -580.918)" fill="#fff"/>
        </g>
        <g id="Group_309-2" data-name="Group 309" transform="translate(496.86 786.788)">
          <path id="Path_431-2" data-name="Path 431" d="M548.222,594.593c-32.981,0-50.739-6.618-51.475-6.9l1.5-3.946c.176.067,17.853,6.628,49.973,6.628Z" transform="translate(-496.747 -583.744)" fill="#fff"/>
        </g>
        <g id="Group_310-2" data-name="Group 310" transform="translate(496.86 843.826)">
          <path id="Path_432-2" data-name="Path 432" d="M548.222,606.59c-32.981,0-50.739-6.618-51.475-6.9l1.5-3.946c.176.066,17.853,6.627,49.973,6.627Z" transform="translate(-496.747 -595.741)" fill="#fff"/>
        </g>
        <g id="Group_311-2" data-name="Group 311" transform="translate(496.831 739.558)">
          <path id="Path_433-2" data-name="Path 433" d="M551.63,585.905c-33.941,0-54.048-7.835-54.889-8.168l1.559-3.927c.2.076,20.268,7.873,53.33,7.873,30.114,0,46.255-7.73,46.412-7.807l1.864,3.789C599.226,578,582.833,585.905,551.63,585.905Z" transform="translate(-496.741 -573.81)" fill="#fff"/>
        </g>
        <g id="Group_312-2" data-name="Group 312" transform="translate(496.831 722.437)">
          <path id="Path_434-2" data-name="Path 434" d="M551.63,582.309c-33.941,0-54.048-7.84-54.889-8.173l1.559-3.927c.2.081,20.268,7.873,53.33,7.873,30.114,0,46.255-7.73,46.412-7.8l1.864,3.789C599.226,574.407,582.833,582.309,551.63,582.309Z" transform="translate(-496.741 -570.209)" fill="#fff"/>
        </g>
        <g id="Group_313-2" data-name="Group 313" transform="translate(548.335 819.327)">
          <path id="Path_435-2" data-name="Path 435" d="M507.574,601.271v-4.227c38.306,0,49.526-6.39,49.636-6.456l2.206,3.6C558.945,594.482,547.482,601.271,507.574,601.271Z" transform="translate(-507.574 -590.588)" fill="#fff"/>
        </g>
        <g id="Group_314-2" data-name="Group 314" transform="translate(548.335 756.17)">
          <path id="Path_436-2" data-name="Path 436" d="M507.574,587.982v-4.227c38.306,0,49.526-6.395,49.64-6.452l2.2,3.6C558.945,581.2,547.482,587.982,507.574,587.982Z" transform="translate(-507.574 -577.304)" fill="#fff"/>
        </g>
        <path id="Path_437-2" data-name="Path 437" d="M507.574,792.211c33.818,0,50.729-12.376,50.729-12.376V558.372s-15.01,8.876-50.729,8.876Z" transform="translate(40.761 107.788)" fill="#debb3e" opacity="0.5"/>
      </g>
      <g id="Group_319" data-name="Group 319" transform="matrix(0.999, -0.052, 0.052, 0.999, 2219.406, 537.621)">
        <circle id="Ellipse_8-3" data-name="Ellipse 8" cx="38.016" cy="38.016" r="38.016" transform="translate(-532.772 329.373)" fill="#ffd01f"/>
        <circle id="Ellipse_9-3" data-name="Ellipse 9" cx="30.491" cy="30.491" r="30.491" transform="translate(-537.877 367.389) rotate(-45)" fill="#efbb18"/>
        <path id="Path_82-3" data-name="Path 82" d="M-477.366,372.373a36.4,36.4,0,0,0-8.1-4.185v-11.2a9.167,9.167,0,0,1,7,4.6c.271.543.581,1.111.907,1.662a1.875,1.875,0,0,0,1.822,1.029c1.287,0,2.821-.56,2.821-3.224a6.434,6.434,0,0,0-.531-2.009,8.572,8.572,0,0,0-1.006-2c-2.226-3.1-5.929-4.829-11.008-5.136v-.474c0-2.415-1.342-2.922-2.468-2.922-1.15,0-2.519.507-2.519,2.922v.536c-7.356.659-11.084,3.715-11.084,9.087a8.924,8.924,0,0,0,3.728,7.318,29.472,29.472,0,0,0,7.356,3.79V385.8a11.047,11.047,0,0,1-4.487-2.089,8.073,8.073,0,0,1-2.933-4.472,2.787,2.787,0,0,0-2.809-2.417c-1.1,0-2.418.533-2.418,3.074a8.88,8.88,0,0,0,1.779,4.6c2.384,3.626,6.039,5.8,10.867,6.48v1.762c0,2.415,1.37,2.922,2.519,2.922,1.126,0,2.468-.507,2.468-2.922v-1.694a17.242,17.242,0,0,0,8.912-2.974,9.131,9.131,0,0,0,3.634-7.625C-472.925,377.346-474.419,374.628-477.366,372.373Zm-.95,8.029c0,3.28-2.341,5.116-7.154,5.6V374.1C-480.722,376.107-478.316,378.226-478.316,380.4Zm-12.142-23.381v9.342c-3.778-1.492-5.694-3.209-5.694-5.107C-496.151,358.88-494.288,357.493-490.458,357.022Z" transform="translate(-6.742 -4.7)" fill="#ffde73"/>
      </g>
      <g id="Group_320" data-name="Group 320" transform="translate(2032.239 1519.952) rotate(107)">
        <circle id="Ellipse_8-4" data-name="Ellipse 8" cx="38.016" cy="38.016" r="38.016" transform="translate(-532.772 329.373)" fill="#ffd01f"/>
        <circle id="Ellipse_9-4" data-name="Ellipse 9" cx="30.491" cy="30.491" r="30.491" transform="translate(-537.877 367.389) rotate(-45)" fill="#efbb18"/>
        <path id="Path_82-4" data-name="Path 82" d="M-477.366,372.373a36.4,36.4,0,0,0-8.1-4.185v-11.2a9.167,9.167,0,0,1,7,4.6c.271.543.581,1.111.907,1.662a1.875,1.875,0,0,0,1.822,1.029c1.287,0,2.821-.56,2.821-3.224a6.434,6.434,0,0,0-.531-2.009,8.572,8.572,0,0,0-1.006-2c-2.226-3.1-5.929-4.829-11.008-5.136v-.474c0-2.415-1.342-2.922-2.468-2.922-1.15,0-2.519.507-2.519,2.922v.536c-7.356.659-11.084,3.715-11.084,9.087a8.924,8.924,0,0,0,3.728,7.318,29.472,29.472,0,0,0,7.356,3.79V385.8a11.047,11.047,0,0,1-4.487-2.089,8.073,8.073,0,0,1-2.933-4.472,2.787,2.787,0,0,0-2.809-2.417c-1.1,0-2.418.533-2.418,3.074a8.88,8.88,0,0,0,1.779,4.6c2.384,3.626,6.039,5.8,10.867,6.48v1.762c0,2.415,1.37,2.922,2.519,2.922,1.126,0,2.468-.507,2.468-2.922v-1.694a17.242,17.242,0,0,0,8.912-2.974,9.131,9.131,0,0,0,3.634-7.625C-472.925,377.346-474.419,374.628-477.366,372.373Zm-.95,8.029c0,3.28-2.341,5.116-7.154,5.6V374.1C-480.722,376.107-478.316,378.226-478.316,380.4Zm-12.142-23.381v9.342c-3.778-1.492-5.694-3.209-5.694-5.107C-496.151,358.88-494.288,357.493-490.458,357.022Z" transform="translate(-6.742 -4.7)" fill="#ffde73"/>
      </g>
      <g id="Group_322" data-name="Group 322" transform="matrix(0.999, -0.052, 0.052, 0.999, 2444.406, 521.621)">
        <circle id="Ellipse_8-5" data-name="Ellipse 8" cx="38.016" cy="38.016" r="38.016" transform="translate(-532.772 329.373)" fill="#ffd01f"/>
        <circle id="Ellipse_9-5" data-name="Ellipse 9" cx="30.491" cy="30.491" r="30.491" transform="translate(-537.877 367.389) rotate(-45)" fill="#efbb18"/>
        <path id="Path_82-5" data-name="Path 82" d="M-477.366,372.373a36.4,36.4,0,0,0-8.1-4.185v-11.2a9.167,9.167,0,0,1,7,4.6c.271.543.581,1.111.907,1.662a1.875,1.875,0,0,0,1.822,1.029c1.287,0,2.821-.56,2.821-3.224a6.434,6.434,0,0,0-.531-2.009,8.572,8.572,0,0,0-1.006-2c-2.226-3.1-5.929-4.829-11.008-5.136v-.474c0-2.415-1.342-2.922-2.468-2.922-1.15,0-2.519.507-2.519,2.922v.536c-7.356.659-11.084,3.715-11.084,9.087a8.924,8.924,0,0,0,3.728,7.318,29.472,29.472,0,0,0,7.356,3.79V385.8a11.047,11.047,0,0,1-4.487-2.089,8.073,8.073,0,0,1-2.933-4.472,2.787,2.787,0,0,0-2.809-2.417c-1.1,0-2.418.533-2.418,3.074a8.88,8.88,0,0,0,1.779,4.6c2.384,3.626,6.039,5.8,10.867,6.48v1.762c0,2.415,1.37,2.922,2.519,2.922,1.126,0,2.468-.507,2.468-2.922v-1.694a17.242,17.242,0,0,0,8.912-2.974,9.131,9.131,0,0,0,3.634-7.625C-472.925,377.346-474.419,374.628-477.366,372.373Zm-.95,8.029c0,3.28-2.341,5.116-7.154,5.6V374.1C-480.722,376.107-478.316,378.226-478.316,380.4Zm-12.142-23.381v9.342c-3.778-1.492-5.694-3.209-5.694-5.107C-496.151,358.88-494.288,357.493-490.458,357.022Z" transform="translate(-6.742 -4.7)" fill="#ffde73"/>
      </g>
      <g id="Group_323" data-name="Group 323" transform="matrix(0.999, -0.052, 0.052, 0.999, 2399.406, 546.621)">
        <circle id="Ellipse_8-6" data-name="Ellipse 8" cx="38.016" cy="38.016" r="38.016" transform="translate(-532.772 329.373)" fill="#ffd01f"/>
        <circle id="Ellipse_9-6" data-name="Ellipse 9" cx="30.491" cy="30.491" r="30.491" transform="translate(-537.877 367.389) rotate(-45)" fill="#efbb18"/>
        <path id="Path_82-6" data-name="Path 82" d="M-477.366,372.373a36.4,36.4,0,0,0-8.1-4.185v-11.2a9.167,9.167,0,0,1,7,4.6c.271.543.581,1.111.907,1.662a1.875,1.875,0,0,0,1.822,1.029c1.287,0,2.821-.56,2.821-3.224a6.434,6.434,0,0,0-.531-2.009,8.572,8.572,0,0,0-1.006-2c-2.226-3.1-5.929-4.829-11.008-5.136v-.474c0-2.415-1.342-2.922-2.468-2.922-1.15,0-2.519.507-2.519,2.922v.536c-7.356.659-11.084,3.715-11.084,9.087a8.924,8.924,0,0,0,3.728,7.318,29.472,29.472,0,0,0,7.356,3.79V385.8a11.047,11.047,0,0,1-4.487-2.089,8.073,8.073,0,0,1-2.933-4.472,2.787,2.787,0,0,0-2.809-2.417c-1.1,0-2.418.533-2.418,3.074a8.88,8.88,0,0,0,1.779,4.6c2.384,3.626,6.039,5.8,10.867,6.48v1.762c0,2.415,1.37,2.922,2.519,2.922,1.126,0,2.468-.507,2.468-2.922v-1.694a17.242,17.242,0,0,0,8.912-2.974,9.131,9.131,0,0,0,3.634-7.625C-472.925,377.346-474.419,374.628-477.366,372.373Zm-.95,8.029c0,3.28-2.341,5.116-7.154,5.6V374.1C-480.722,376.107-478.316,378.226-478.316,380.4Zm-12.142-23.381v9.342c-3.778-1.492-5.694-3.209-5.694-5.107C-496.151,358.88-494.288,357.493-490.458,357.022Z" transform="translate(-6.742 -4.7)" fill="#ffde73"/>
      </g>
    </g>
  </g>
</svg>
