<svg xmlns="http://www.w3.org/2000/svg" width="241.182" height="290.017" viewBox="0 0 241.182 290.017">
  <g id="Group_264" data-name="Group 264" transform="translate(-703.212 -525.3)">
    <path id="Path_339" data-name="Path 339" d="M920.171,554.007a42.634,42.634,0,0,1-.619,30.357s-10.822,1.528-10.262.974,4.2-26.051,4.2-26.051Z" fill="#3f3e3e"/>
    <g id="Group_242" data-name="Group 242">
      <path id="Path_340" data-name="Path 340" d="M931.36,658.854l-2.126-1.295a1.646,1.646,0,0,0-2.372.846l-1.279,3.152a2.735,2.735,0,0,0,.117,2.319L927.386,667,905.9,674.062l-11.112-23.581a14.843,14.843,0,0,0-14.265-8.845,8.33,8.33,0,0,0-6.9,3.663c-3.16,4.922,2.836,12.53,2.836,12.53L896.576,684.5a11.426,11.426,0,0,0,14.44,3.039l22.256-11.787a32.324,32.324,0,0,1,4.468-1.952l2.58-.9a5.708,5.708,0,0,0,3.374-3.258l.39-.963a4.135,4.135,0,0,0-.51-4.05l-1.542-2.023a4.9,4.9,0,0,1-.966-3.371l.238-2.868a1.967,1.967,0,0,0-1.164-1.992l-1.087-.458a2.5,2.5,0,0,0-2.632.456Z" fill="#cfa58c"/>
      <path id="Path_341" data-name="Path 341" d="M902.39,683.425a6.157,6.157,0,0,0-5.515,1.424,11.389,11.389,0,0,0,10.207,3.956A6.267,6.267,0,0,0,902.39,683.425Z" fill="#cfa58c" opacity="0.54"/>
    </g>
    <path id="Path_342" data-name="Path 342" d="M870.892,634.215c5.672-4.448,13.888-10.292,27.009,10.094,3.987,6.2,11.632,22.258,12.284,26.785a158.249,158.249,0,0,1-26.706,6.176s-16.035-18.646-17.795-25.767C864.6,647.121,862.238,641,870.892,634.215Z" fill="#cdcdcd"/>
    <g id="Group_247" data-name="Group 247">
      <path id="Path_343" data-name="Path 343" d="M787.245,674.836a29.945,29.945,0,0,0-11.7,18.545l-15.975,38.544c-15.651,2.23-42.022,24.453-42.022,24.453l3.969,8.7s40.752-9.229,52.488-16.448c9.272-5.7,30.67-30.289,30.67-30.289l8.632-37.012S792.18,679.544,787.245,674.836Z" fill="#262727"/>
      <path id="Path_344" data-name="Path 344" d="M787.245,674.836a29.945,29.945,0,0,0-11.7,18.545l-5.773,14.8c2.9,7.495,8.927,16.934,20.722,25.593,7.508-7.764,14.181-15.431,14.181-15.431l8.632-37.012S792.18,679.544,787.245,674.836Z" fill="#1c1d1d"/>
      <g id="Group_246" data-name="Group 246">
        <g id="Group_245" data-name="Group 245">
          <g id="Group_244" data-name="Group 244">
            <g id="Group_243" data-name="Group 243">
              <path id="Path_345" data-name="Path 345" d="M720.647,751.562a2.06,2.06,0,0,1,2.005,1.791c.094,3.143.332,5.011,2.306,7.17,1.848,2.021,3.095,3.239,1.386,4.066s-7.413,5.259-8.18,7.989c-1.855,6.607-4.516,20.126-10.337,19.99-5.449-.126-4.1-8.354-3.251-20.178s-3.6-15.375.193-20.4C706.732,749.392,716.461,751.224,720.647,751.562Z" fill="#070203"/>
            </g>
          </g>
        </g>
        <path id="Path_346" data-name="Path 346" d="M717.546,756.437a3.461,3.461,0,1,1-3.093-3.793A3.462,3.462,0,0,1,717.546,756.437Z" fill="#070203"/>
        <path id="Path_347" data-name="Path 347" d="M704.733,790.729a3.322,3.322,0,0,0,3.094,1.839c3.447.081,5.785-4.626,7.5-9.851a19.522,19.522,0,0,0-2.063-1.566,19.762,19.762,0,0,0-7.114-2.889c.9-9.664,1.251-18.418.66-20.878-.513-2.134.678-4.557,2.363-6.748-2.048.072-3.715.436-4.409,1.354-3.8,5.025.655,8.584-.193,20.4-.141,1.968-.295,3.83-.43,5.578h0c-.01.129-.02.254-.029.381l-.011.144q-.051.671-.1,1.315l0,.046c-.094,1.345-.167,2.6-.2,3.769v.012a29.307,29.307,0,0,0,.12,4.141v0a8.335,8.335,0,0,0,.8,2.948v0Z" fill="#070203"/>
      </g>
    </g>
    <g id="Group_248" data-name="Group 248">
      <path id="Path_348" data-name="Path 348" d="M830.8,683.553c-2.851.331-20.473-11.981-36.252-1.373-1.2.8-2.179,2.558-2.981,4.737a27.186,27.186,0,0,0,5.032,26.758L833.238,757.7a101.243,101.243,0,0,0,15.316,28.389c3.71,4.908,14.781,18.316,14.781,18.316l7.911-3.6L855.286,743Z" fill="#262727"/>
      <path id="Path_349" data-name="Path 349" d="M834.339,692.152l-3.542-8.6c-2.85.331-20.473-11.981-36.252-1.373-1.2.8-2.179,2.558-2.981,4.737-.141.384-.258.772-.38,1.159A56.437,56.437,0,0,0,834.339,692.152Z" fill="#262727"/>
    </g>
    <path id="Path_350" data-name="Path 350" d="M848.554,786.088c3.71,4.908,14.781,18.316,14.781,18.316l7.911-3.6-6-21.725c-5.507,4.372-12.037,5.888-17.207,6.308C848.212,785.623,848.377,785.854,848.554,786.088Z" fill="#262727"/>
    <path id="Path_351" data-name="Path 351" d="M902.877,798.072a5.587,5.587,0,0,0,1.206-1.434l.018-.033a3.425,3.425,0,0,0,.168-.36c.009-.022.017-.045.025-.067a2.936,2.936,0,0,0,.1-.332l.021-.092a2.788,2.788,0,0,0,.045-.314c0-.038.007-.075.009-.113a2.761,2.761,0,0,0,0-.3c0-.043,0-.086-.009-.129a2.88,2.88,0,0,0-.051-.3c-.01-.046-.016-.091-.028-.137-.028-.105-.065-.211-.1-.318-.015-.042-.026-.083-.043-.126a4.577,4.577,0,0,0-.214-.452,3.355,3.355,0,0,0-.322-.478c-.038-.049-.082-.092-.123-.139a3.787,3.787,0,0,0-.273-.28c-.053-.049-.11-.094-.167-.14-.1-.078-.2-.152-.3-.223-.063-.042-.127-.083-.194-.122-.113-.068-.232-.13-.354-.189-.066-.032-.13-.066-.2-.1-.151-.066-.31-.126-.473-.182-.046-.015-.089-.034-.136-.049q-.32-.1-.666-.18c-.059-.014-.122-.023-.182-.036-.176-.036-.354-.07-.538-.1-.088-.014-.179-.024-.269-.036-.165-.021-.332-.039-.5-.055-.1-.008-.2-.016-.3-.022-.174-.012-.352-.021-.532-.027-.1,0-.2-.008-.294-.009-.2,0-.408,0-.616,0-.08,0-.158,0-.239,0q-.44.009-.894.035l-.035,0q-.437.026-.885.066l-.271.026c-.226.022-.452.045-.681.072-.1.011-.206.024-.31.037q-.335.041-.672.088l-.307.043c-.245.035-.492.073-.739.112l-.232.037c-4.183.685-8.583,1.874-11.665,2.561-2.877.64-9.715-2.067-11.309-3.115s-2.1.574-3.055,3.078c-1.02,2.676-2.619,3.755-5.455,5.313a1.923,1.923,0,0,0-.669,2.528c1.117,2.379,2.791,6.993,4.736,10.077h-.006c.082.131.166.254.25.379.05.076.1.156.151.229.158.229.319.442.48.646.059.074.118.143.177.213.125.15.252.29.379.422.052.055.1.112.157.163a5.392,5.392,0,0,0,.522.45c.041.03.082.052.122.08a3.3,3.3,0,0,0,.438.256c.051.025.1.05.155.071a2.268,2.268,0,0,0,.556.159c6.457.826,7.556-4.591,18.809-9.44.882-.38,1.739-.744,2.579-1.1,2.327-.985,4.48-1.887,6.385-2.744l.018-.008q.89-.4,1.7-.79h0l.005,0q1.078-.517,2.01-1.021l.029-.016c.615-.336,1.178-.669,1.684-1l.013-.008,0,0,.011-.007a12.211,12.211,0,0,0,1.337-1.011Z" fill="#070203"/>
    <path id="Path_352" data-name="Path 352" d="M785.7,669.51c-.213.2-.428.4-.632.59-.263.241-.512.462-.758.68-.174.154-.356.319-.521.462-.371.322-.723.619-1.045.884-.134.111-.248.2-.372.3-.2.163-.405.327-.581.465l-.354.274-.376.287c-.09.067-.181.136-.256.19l-.319.232-.064.045-.147.1s.013.05.035.124c.007.027.011.036.022.075.063.211.187.6.392,1.144l.075.2c.194.5.441,1.108.772,1.827.265.577.583,1.224.952,1.923.211.4.438.817.687,1.255.326.572.7,1.183,1.093,1.811a60.942,60.942,0,0,0,8.342,10.374c1,1.013,2.023,2.221,3.186,3.264q1.947,1.743,4.212,3.523l.027.02c.267.208.555.417.829.626h0c.6.459,1.21.918,1.846,1.378.279.2.57.4.854.6.394.28.782.559,1.19.838.3.206.621.411.93.616q.532.355,1.08.709c.729.472,1.483.943,2.252,1.413.347.212.686.425,1.042.636,1.128.671,2.285,1.34,3.5,2l.007,0c1.206.66,2.468,1.312,3.761,1.959.4.2.814.4,1.221.594q1.4.681,2.86,1.35.722.33,1.46.656c1,.441,2.023.876,3.066,1.307.463.191.917.384,1.39.574,1.518.608,3.071,1.209,4.687,1.795l.11-.125.091-.1c1.112-1.26,3.777-3.442,10.053-10.047q.8-.846,1.622-1.7c.11-.114.219-.228.329-.341q.788-.817,1.578-1.626c.128-.132.258-.264.386-.4q.765-.781,1.526-1.544c.138-.139.276-.279.414-.416.509-.509,1.012-1.006,1.512-1.5l.508-.5q.713-.695,1.409-1.357l.48-.455c.842-.794,1.657-1.544,2.437-2.238l.139-.124c.327-.289.645-.565.957-.833l.207-.179c.359-.3.71-.6,1.046-.868.549-.442,1.235-.983,2.026-1.613l.1-.082c.37-.295.758-.6,1.171-.938l.09-.073c.421-.341.86-.7,1.319-1.077.046-.037.1-.079.141-.117.449-.371.91-.755,1.389-1.161l.189-.163c.47-.4.948-.811,1.441-1.242l.237-.212c.481-.423.968-.856,1.466-1.309.116-.106.236-.22.353-.327.463-.425.928-.854,1.4-1.3.019-.019.038-.035.057-.054v0c14.157-13.457,31.973-37.629,8.442-64.274-6.588-7.46-21.956-11.161-34.591-7.615-17.377,4.877-33.41,15.074-42.687,38.713a64.254,64.254,0,0,1-4.724,9.577c-.193.322-.391.625-.586.938-.347.557-.694,1.11-1.046,1.642-.263.4-.529.778-.794,1.162-.294.423-.588.842-.883,1.249-.262.361-.524.718-.787,1.065-.313.414-.625.815-.938,1.21-.247.312-.494.631-.74.931-.358.437-.712.85-1.065,1.262" fill="#d3d3d3"/>
    <path id="Path_353" data-name="Path 353" d="M881.333,632.757s-.111,14.692-23.72,39.185c0,0-2.519-14.8,3.064-50.762l12.857,2.219Z" fill="#d3d3d3"/>
    <path id="Path_354" data-name="Path 354" d="M790.784,674.354" fill="#5e7cac"/>
    <g id="Group_249" data-name="Group 249">
      <path id="Path_355" data-name="Path 355" d="M879.606,621.973a8.874,8.874,0,0,0,8.141,1.064c.39-.14.157-.851-.25-.739-2.31.634-5.372.765-7.526-.847a.319.319,0,1,0-.365.522Z" fill="#956b52"/>
    </g>
    <path id="Path_356" data-name="Path 356" d="M871.125,673.148s-16.733,37.69-26.415,43.473l-12.463-.229-6.441-18.015,34.985-20.517" fill="#d3d3d3"/>
    <path id="Path_357" data-name="Path 357" d="M884.685,628.159c-4.513-.9-11.413-1.434-16.293.673-3.3,1.425-4.1.24-1.887,3.585,2.5,3.567,12.743,16.957,17.445,17.419-.271-4.354-.565-14.826.721-19.111" fill="#dfdfde"/>
    <path id="Path_358" data-name="Path 358" d="M851.167,611.546c-3.654,2.8-10.861,11.4-12.491,16.457-1.1,3.423-2.519,3.243,1.455,3.781,4.33.471,21.153,1.582,24.6-1.651-3.454-2.664-11.526-9.341-13.9-13.132" fill="#dfdfde"/>
    <g id="Group_251" data-name="Group 251">
      <g id="Group_250" data-name="Group 250">
        <path id="Path_359" data-name="Path 359" d="M804.923,655.215l2.1-1.553a1.728,1.728,0,0,0,.119-2.641l-2.557-2.492a2.874,2.874,0,0,0-2.3-.806l-3.7.4,1.648-23.686,27.325-1.457a15.581,15.581,0,0,0,14.249-10.36,8.748,8.748,0,0,0-.826-8.158c-3.532-5.021-13.3-2.207-13.3-2.207l-33.9,8.986a11.994,11.994,0,0,0-8.676,12.83l2.638,26.3a34.055,34.055,0,0,1,.128,5.117l-.146,2.865a5.987,5.987,0,0,0,1.83,4.57l.781.762a4.342,4.342,0,0,0,4.139,1.109l2.577-.7a5.14,5.14,0,0,1,3.659.4l2.693,1.368a2.064,2.064,0,0,0,2.4-.342l.876-.875a2.62,2.62,0,0,0,.6-2.739Z" fill="#e7cbba"/>
        <path id="Path_360" data-name="Path 360" d="M792.519,617.32a6.465,6.465,0,0,0,.8-5.925,11.954,11.954,0,0,0-7.89,8.354A6.577,6.577,0,0,0,792.519,617.32Z" fill="#e7cbba" opacity="0.54"/>
      </g>
      <path id="Path_361" data-name="Path 361" d="M847.743,613.192c-.654-7.538-2.061-18.027-27.1-13.48-7.609,1.382-25.407,7.031-29.346,9.776A166.119,166.119,0,0,0,805.7,634.4s25.792-1.065,32.515-4.819C842.354,627.267,848.741,624.691,847.743,613.192Z" fill="#ebebeb"/>
    </g>
    <path id="Path_362" data-name="Path 362" d="M825.959,558.779s-3.067,12.844-.153,15.119l4.228,6.678,20.658-.3-7.359-21.495Z" fill="#3f3e3e"/>
    <path id="Path_363" data-name="Path 363" d="M874.428,632.132s51.619,7.031,43.706-53.126c-6.252-47.538-44.447-46.712-44.447-46.712-51.574,6.186-38.793,47.679-33.961,67.256,0,0,3.158,28.343,34.7,32.582" fill="#e7cbba"/>
    <path id="Path_364" data-name="Path 364" d="M850.692,580.474H838.727l.324,2.38,11.64-.075" fill="#262727"/>
    <path id="Path_365" data-name="Path 365" d="M828.721,576.173" fill="#110611"/>
    <g id="Group_252" data-name="Group 252">
      <path id="Path_366" data-name="Path 366" d="M861.92,568.671c2.463.5,4.817.727,7.3,1.27,2.388.524,5.557,2.348,7.559,2.085.556-.073.491-.48-.082-.869-1.864-1.266-4.909-1.8-6.992-2.192-2.771-.515-5.245-.286-7.85-.512-.181-.016-.143.175.07.218Z" fill="#3f3e3e"/>
    </g>
    <g id="Group_253" data-name="Group 253">
      <path id="Path_367" data-name="Path 367" d="M905.545,569.726c-2.027.446-3.995.634-6.03,1.124-1.96.472-4.422,2.19-6.152,1.908-.481-.079-.476-.472-.038-.84,1.424-1.2,3.94-1.673,5.659-2.018,2.286-.459,4.412-.2,6.593-.383.152-.013.143.171-.032.209Z" fill="#3f3e3e"/>
    </g>
    <g id="Group_255" data-name="Group 255">
      <ellipse id="Ellipse_43" data-name="Ellipse 43" cx="9.172" cy="7.473" rx="9.172" ry="7.473" transform="translate(878.435 590.931)" fill="#ef979a" opacity="0.55"/>
      <g id="Group_254" data-name="Group 254">
        <path id="Path_368" data-name="Path 368" d="M888.119,580.578c-1.958,6.861.87,8.945,4.983,13.97,2.123,2.593,4.884,2.788,4.194,6.127-1.249,6.036-9.246,4.98-10.924.84l.943-.151c-.456,4.338-6.92,4.609-6.764.12.011-.292.525-.319.563-.028.437,3.277,5.306,3.615,5.235-.043a.517.517,0,0,1,.891-.242c1.607,2.447,3.488,2.774,7.084,1.2,5.066-2.216-1.218-5.616-3.013-7.422-4.794-4.823-6.168-7.908-3.5-14.425.064-.156.358-.113.311.052Z" fill="#ac8771"/>
      </g>
      <circle id="Ellipse_44" data-name="Ellipse 44" cx="1.212" cy="1.212" r="1.212" transform="translate(891.313 598.404)" fill="#fff"/>
    </g>
    <path id="Path_369" data-name="Path 369" d="M895.792,599.306s5.7,2.3,6.683,10.7C902.475,610.005,903.034,607.328,895.792,599.306Z" fill="#ac8771"/>
    <path id="Path_370" data-name="Path 370" d="M872.125,607.336s-1.263-5.14,6.818-10.647C878.943,596.689,875.81,597.859,872.125,607.336Z" fill="#ac8771"/>
    <g id="Group_257" data-name="Group 257">
      <path id="Path_371" data-name="Path 371" d="M873.507,615.206s12.5,8.66,20.742.891c0,0-5.4-3.2-9.5.24C884.747,616.337,881.108,612.9,873.507,615.206Z" fill="#c09378"/>
      <g id="Group_256" data-name="Group 256">
        <path id="Path_372" data-name="Path 372" d="M873.507,615.206s2.269,5.215,10.622,5.993,10.12-5.1,10.12-5.1S885.466,621.641,873.507,615.206Z" fill="#cfa58c"/>
      </g>
      <path id="Path_373" data-name="Path 373" d="M885.2,615.2s.614-.909,1.585-5.972C886.783,609.23,886.125,606.905,885.2,615.2Z" fill="#ac8771"/>
    </g>
    <g id="Group_258" data-name="Group 258">
      <path id="Path_374" data-name="Path 374" d="M881.793,587.345s.982-6.7-1.843-8.044-22.723-2.532-25.671,0-1.966,7-1.843,8.044,1.638,9.557,8.271,10,13.47.716,16.05-.773S881.793,587.345,881.793,587.345Z" fill="#b5d2de"/>
      <path id="Path_375" data-name="Path 375" d="M876.757,596.576c-2.49,1.437-8.945,1.234-15.354.817,5.47-6.609,11.177-13.515,15.515-18.785a13.111,13.111,0,0,1,3.032.693c2.825,1.34,1.843,8.044,1.843,8.044S879.336,595.087,876.757,596.576Z" fill="#a4c0ce"/>
      <path id="Path_376" data-name="Path 376" d="M890.56,587.345s-.983-6.7,1.842-8.044,22.724-2.532,25.672,0,1.965,7,1.842,8.044-1.637,9.557-8.27,10-13.471.716-16.05-.773S890.56,587.345,890.56,587.345Z" fill="#b5d2de"/>
      <path id="Path_377" data-name="Path 377" d="M919.916,587.345c-.123,1.04-1.637,9.557-8.27,10-5.367.361-10.829.59-14.1-.119,5.62-6.789,11.477-13.876,15.829-19.166,2.242.226,3.98.619,4.7,1.237C921.022,581.832,920.039,586.3,919.916,587.345Z" fill="#a4c0ce"/>
      <path id="Path_378" data-name="Path 378" d="M862.777,580.145s-5.876-.605-7.615,1.266-1,5.825-.676,5.826c1.269.005.86-2.351,3.009-2.7,1.3-.211.614-2.234,1.843-2.755S865.535,580.227,862.777,580.145Z" fill="#ecf3f4"/>
      <path id="Path_379" data-name="Path 379" d="M900.732,580.145s-5.877-.605-7.616,1.266-1,5.825-.675,5.826c1.269.005.859-2.351,3.009-2.7,1.3-.211.614-2.234,1.842-2.755S903.49,580.227,900.732,580.145Z" fill="#ecf3f4"/>
      <path id="Path_380" data-name="Path 380" d="M850.692,580.274h1.788a5.743,5.743,0,0,1,1.444-1.577c3.6-2.692,23.626-1.388,26.266-.136a3.5,3.5,0,0,1,1.141.888,56.164,56.164,0,0,1,9.3,0,3.5,3.5,0,0,1,1.141-.888c2.64-1.252,22.661-2.556,26.266.136a5.743,5.743,0,0,1,1.444,1.577h1.788c.576,0,.576,2.794,0,2.794h-.862a22.767,22.767,0,0,1-.107,4.209c-.031.386-.351.57-.72.63l-.37-.153h0c.044-.239.075-.435.087-.539.015-.128.044-.309.076-.533a14.614,14.614,0,0,0,.175-2.317,6.6,6.6,0,0,0-2.07-5.094,2.115,2.115,0,0,0-.317-.22c-.073-.043-.162-.081-.246-.122-.052-.025-.1-.052-.155-.076-4.54-1.936-22.014-.824-24.633.419-2.79,1.323-1.819,7.943-1.819,7.943s.086.269.238.706l-.392.225a.8.8,0,0,1-.8-.337,12.672,12.672,0,0,1,.155-6.137,31.851,31.851,0,0,0-3.447-.059v0H885.9v0a31.851,31.851,0,0,0-3.447.059,12.672,12.672,0,0,1,.155,6.137.828.828,0,0,1-.873.335l-.323-.213c.155-.447.24-.716.24-.716s.034-.232.071-.619a19.9,19.9,0,0,0,.09-2.184c-.031-1.975-.411-4.4-1.98-5.141l-.011,0a3.547,3.547,0,0,0-.424-.158l-.12-.036c-4.179-1.235-22.031-2.177-24.8.2-2.911,2.5-1.94,6.916-1.819,7.943l-.582.6a.634.634,0,0,1-.422-.542,22.767,22.767,0,0,1-.107-4.209h-.862C850.116,583.068,850.116,580.274,850.692,580.274Z" fill="#262727"/>
    </g>
    <path id="Path_381" data-name="Path 381" d="M893.194,548.324l-5.587,6.646s-8.7-14.28-17.945-16.788v10.142l-8.124-7.386s2.241,5.621,0,6.481c0,0-8.685.879-9.245,3.952,0,0-1.681,5.038-4.482,5.6,0,0-7.844,9.268-7.564,16.539l-.008,5.87-6.688-4.72s-6.751-15.743-7.592-15.877,1.121-20.329,22.972-28.148c0,0,26.567-15.831,59.82,7.07,0,0,8.255,5.822,12.457,19.266l-4.2,16.539-9.711-16.565a13.784,13.784,0,0,1-2.172,2.909C903.722,561.281,899.637,550.609,893.194,548.324Z" fill="#3f3e3e"/>
    <g id="Group_259" data-name="Group 259">
      <path id="Path_382" data-name="Path 382" d="M837.2,594.312c-20.474-.6-18.956-27.122-3.645-19.656,3.455,1.819,10.4,8.543,9.737,13.41-.3,1.9-4.012,5.055-6.092,6.246" fill="#e7cbba"/>
      <path id="Path_383" data-name="Path 383" d="M836.81,589.788a13.452,13.452,0,0,1-6.974-5.533c-.494-.866-1.437-3.321.2-3.679,1.461-.26,4.089,3.531,4.77,4.521a11.618,11.618,0,0,1,2.006,4.691" fill="#c09378"/>
    </g>
    <g id="Group_261" data-name="Group 261">
      <g id="Group_260" data-name="Group 260">
        <path id="Path_384" data-name="Path 384" d="M873.675,585.957a11.984,11.984,0,0,0-3.869-2.758,9.271,9.271,0,0,0-8,.315l-.4-.678a9.957,9.957,0,0,1,3.512-1.073c2.486-.3,5.963.169,9.326,3.646Z" fill="#3f3e3e"/>
      </g>
      <ellipse id="Ellipse_45" data-name="Ellipse 45" cx="1.503" cy="2.736" rx="1.503" ry="2.736" transform="matrix(0.034, -0.999, 0.999, 0.034, 864.802, 584.967)" fill="#3f3e3e"/>
    </g>
    <g id="Group_263" data-name="Group 263">
      <g id="Group_262" data-name="Group 262">
        <path id="Path_385" data-name="Path 385" d="M897.188,584.7a11.978,11.978,0,0,1,4.441-1.691,9.269,9.269,0,0,1,7.661,2.327l.56-.554a9.954,9.954,0,0,0-3.127-1.926c-2.329-.92-5.812-1.344-9.945,1.171Z" fill="#3f3e3e"/>
      </g>
      <ellipse id="Ellipse_46" data-name="Ellipse 46" cx="1.503" cy="2.736" rx="1.503" ry="2.736" transform="translate(900.686 584.784) rotate(-77.303)" fill="#3f3e3e"/>
    </g>
    <path id="Path_386" data-name="Path 386" d="M874.972,588.53s-3.108,4.284-12.532,1.67C862.44,590.2,865.357,591.836,874.972,588.53Z" fill="#ac8771"/>
    <path id="Path_387" data-name="Path 387" d="M896.419,588.084s3.108,4.283,12.532,1.67C908.951,589.754,906.034,591.39,896.419,588.084Z" fill="#ac8771"/>
  </g>
</svg>
