<svg xmlns="http://www.w3.org/2000/svg" width="820.435" height="472.88" viewBox="0 0 820.435 472.88">
  <g id="Group_329" data-name="Group 329" transform="matrix(-0.891, -0.454, 0.454, -0.891, 480.192, 698.173)">
    <g id="Group_324" data-name="Group 324" transform="translate(-75.703 408.862)">
      <path id="Path_438" data-name="Path 438" d="M-92.459,110.4-104.747,136.2l-12.832-25.231,12.288-25.795Z" transform="translate(162.721 64.417)" fill="#d86645"/>
      <path id="Path_439" data-name="Path 439" d="M-101.208,87.225l-8.872,5.17,1.305-10.095,8.872-5.163Z" transform="translate(218.036 5.154)" fill="#d86645"/>
      <path id="Path_440" data-name="Path 440" d="M-86.207,106.179l1.252,28.543-23.172-16.264-1.252-28.543Z" transform="translate(223.202 99.417)" fill="#c942c2"/>
      <path id="Path_441" data-name="Path 441" d="M-105.507,81.792l5.063,5.105-7.068.892-5.068-5.105Z" transform="translate(199.601 39.49)" fill="#c942c2"/>
      <path id="Path_442" data-name="Path 442" d="M-112.815,95.576l3.759-9.547,5.232,8.721-3.759,9.555Z" transform="translate(197.868 70.743)" fill="#d86645"/>
      <path id="Path_443" data-name="Path 443" d="M-104.478,89.286l-7.142-.859,4.995-5.089,7.142.868Z" transform="translate(206.687 50.895)" fill="#c942c2"/>
      <path id="Path_444" data-name="Path 444" d="M-86.235,101.565l-14.689,17.614L-105.889,97-91.2,79.387Z" transform="translate(248.958 21.746)" fill="#ffff45"/>
      <path id="Path_445" data-name="Path 445" d="M-95.078,77.888l13.765,5.22-12.414,7.665L-107.5,85.554Z" transform="translate(237.103 10.687)" fill="#c942c2"/>
      <path id="Path_446" data-name="Path 446" d="M-106.644,74.48l5.1,5.367-7.293.761-5.1-5.359Z" transform="translate(189.615 -14.456)" fill="#d86645"/>
      <path id="Path_447" data-name="Path 447" d="M-112.665,84.68l5.6-9.007,3.694,9.842-5.6,9.016Z" transform="translate(198.974 -5.66)" fill="#c942c2"/>
      <path id="Path_448" data-name="Path 448" d="M-112.648,83.985l1.9-14.6L-100.43,79.69l-1.894,14.6Z" transform="translate(199.097 -52.07)" fill="#f4a1c2"/>
      <path id="Path_449" data-name="Path 449" d="M-101.964,87.94l-.532-10.25,8.373,5.776.536,10.25Z" transform="translate(273.993 9.225)" fill="#d86645"/>
      <path id="Path_450" data-name="Path 450" d="M-88.439,88.239l-14.042,4.443,4.994-13.711,14.039-4.443Z" transform="translate(274.102 -14.103)" fill="#c942c2"/>
      <path id="Path_451" data-name="Path 451" d="M-109.658,89.946l-4.716,9.121-4.311-9.212,4.712-9.122Z" transform="translate(154.555 31.68)" fill="#d86645"/>
      <path id="Path_452" data-name="Path 452" d="M-116.256,83.783l7.178,1.628-5.616,4.655-7.179-1.629Z" transform="translate(131.044 54.173)" fill="#c942c2"/>
      <path id="Path_453" data-name="Path 453" d="M-111.109,80.317l14.419-2.987-6.365,13.131-14.422,2.987Z" transform="translate(163.467 6.573)" fill="#f4a1c2"/>
      <path id="Path_454" data-name="Path 454" d="M-96.184,86.958-105.65,98.24-108.8,84l9.466-11.29Z" transform="translate(227.518 -27.539)" fill="#c942c2"/>
      <path id="Path_455" data-name="Path 455" d="M-102,70.323l5-1.768-1.632,5-5,1.767Z" transform="translate(265.64 -58.166)" fill="#d86645"/>
      <path id="Path_456" data-name="Path 456" d="M-98.08,74.715l-4.262-6.3,7.523.457,4.266,6.3Z" transform="translate(275.128 -59.188)" fill="#c942c2"/>
      <path id="Path_457" data-name="Path 457" d="M-97.026,81.363l-12.563-7.682,13.622-5.219L-83.4,76.144Z" transform="translate(221.664 -58.849)" fill="#c942c2"/>
      <path id="Path_458" data-name="Path 458" d="M-121.923,80.465l1.856-4.2,2.172,3.993-1.857,4.2Z" transform="translate(130.669 -1.265)" fill="#d86645"/>
      <path id="Path_459" data-name="Path 459" d="M-105.978,84.9l-14.533-2.372,10.648-9.981,14.533,2.38Z" transform="translate(141.087 -28.728)" fill="#c942c2"/>
      <path id="Path_460" data-name="Path 460" d="M-116.615,83.953l-6.352,1.718,2.487-6.021,6.353-1.727Z" transform="translate(122.967 10.947)" fill="#c942c2"/>
      <path id="Path_461" data-name="Path 461" d="M-95.965,75.4l6.332-8.082,2.528,9.85-6.328,8.082Z" transform="translate(322.173 -67.315)" fill="#d86645"/>
      <path id="Path_462" data-name="Path 462" d="M-84.642,82.513l-14.726.254,8.7-11.715,14.721-.262Z" transform="translate(297.073 -41.682)" fill="#f4a1c2"/>
      <path id="Path_463" data-name="Path 463" d="M-102.89,75.475-97,70.657l.229,7.535-5.886,4.819Z" transform="translate(271.087 -42.661)" fill="#c942c2"/>
      <path id="Path_464" data-name="Path 464" d="M-77.338,137.435-107.3,172.7l-9.6-44.84L-86.934,92.6Z" transform="translate(167.782 119.186)" fill="#ff95a6"/>
    </g>
    <g id="Group_325" data-name="Group 325" transform="translate(-129.374 253.546)">
      <path id="Path_465" data-name="Path 465" d="M-93.859,85.881-121.368,93.6l10.554-26.27,27.509-7.722Z" transform="translate(188.439 31.172)" fill="#d86645"/>
      <path id="Path_466" data-name="Path 466" d="M-98.455,68.324l-9.723-3.281,8.451-5.653L-90,62.671Z" transform="translate(285.746 29.537)" fill="#d86645"/>
      <path id="Path_467" data-name="Path 467" d="M-94.762,95.953l-20.665,19.724-3.007-28.15L-97.764,67.8Z" transform="translate(210.085 91.603)" fill="#c942c2"/>
      <path id="Path_468" data-name="Path 468" d="M-106.264,64.855l-.507,7.175-5.326-4.737.5-7.175Z" transform="translate(256.834 34.911)" fill="#c942c2"/>
      <path id="Path_469" data-name="Path 469" d="M-113.4,66.45-103.737,63l-3.129,9.678-9.666,3.452Z" transform="translate(224.116 56.15)" fill="#d86645"/>
      <path id="Path_470" data-name="Path 470" d="M-108.9,68.137l-4.05-5.948,7.117.409,4.05,5.948Z" transform="translate(250.577 50.184)" fill="#c942c2"/>
      <path id="Path_471" data-name="Path 471" d="M-85.993,83.157l-22.935.532,13.437-18.325,22.931-.54Z" transform="translate(280.206 69.615)" fill="#ffff45"/>
      <path id="Path_472" data-name="Path 472" d="M-92.419,66.212l5.129,13.8L-101.226,75.7l-5.134-13.793Z" transform="translate(299.16 48.116)" fill="#c942c2"/>
      <path id="Path_473" data-name="Path 473" d="M-101.437,59.267l-.679,7.363-5.375-4.982.683-7.371Z" transform="translate(290.81 -8.186)" fill="#d86645"/>
      <path id="Path_474" data-name="Path 474" d="M-103.826,58.17l10.476-1.71-4.982,9.261-10.476,1.71Z" transform="translate(281.095 7.923)" fill="#c942c2"/>
      <path id="Path_475" data-name="Path 475" d="M-103.115,60.18-90.871,52l-.973,14.554-12.239,8.18Z" transform="translate(315.946 -24.986)" fill="#f4a1c2"/>
      <path id="Path_476" data-name="Path 476" d="M-103.11,72.083l7.371-7.142,1.162,10.1-7.371,7.15Z" transform="translate(323.133 70.487)" fill="#d86645"/>
      <path id="Path_477" data-name="Path 477" d="M-88.889,76.578l-12.583-7.649,13.6-5.26,12.587,7.649Z" transform="translate(335.222 61.099)" fill="#c942c2"/>
      <path id="Path_478" data-name="Path 478" d="M-106.522,64.488l-9.964,2.455,4.094-9.311,9.973-2.454Z" transform="translate(224.454 -1.536)" fill="#d86645"/>
      <path id="Path_479" data-name="Path 479" d="M-112.789,55.889l3.5,6.479-7.2-1.162-3.5-6.479Z" transform="translate(198.612 -4.864)" fill="#c942c2"/>
      <path id="Path_480" data-name="Path 480" d="M-99.193,54.231l11.736,8.893-14.071,3.845-11.74-8.893Z" transform="translate(248.192 -8.524)" fill="#f4a1c2"/>
      <path id="Path_481" data-name="Path 481" d="M-89.95,69.509l-14.722.3,8.66-11.74,14.726-.3Z" transform="translate(311.605 17.577)" fill="#c942c2"/>
      <path id="Path_482" data-name="Path 482" d="M-91.872,58.362l4.623,2.6-4.835,2.062-4.622-2.6Z" transform="translate(370.376 21.951)" fill="#d86645"/>
      <path id="Path_483" data-name="Path 483" d="M-95.379,66.308l1.938-7.354,4.606,5.964-1.934,7.354Z" transform="translate(380.17 26.317)" fill="#c942c2"/>
      <path id="Path_484" data-name="Path 484" d="M-97.941,68.452l-2.479-14.514,12.893,6.815,2.483,14.521Z" transform="translate(342.978 -10.686)" fill="#c942c2"/>
      <path id="Path_485" data-name="Path 485" d="M-112.932,50.911l4.376-1.366-1.575,4.262-4.381,1.366Z" transform="translate(239.022 -43.098)" fill="#d86645"/>
      <path id="Path_486" data-name="Path 486" d="M-103.338,61.283l-7.772-12.508L-96.6,50.223l7.776,12.509Z" transform="translate(264.114 -48.775)" fill="#c942c2"/>
      <path id="Path_487" data-name="Path 487" d="M-111.1,55.783l-5.473-3.649,6.172-2.094,5.477,3.649Z" transform="translate(223.795 -39.446)" fill="#c942c2"/>
      <path id="Path_488" data-name="Path 488" d="M-85.779,64.154l10.255-.556-5.755,8.394-10.255.556Z" transform="translate(408.53 60.58)" fill="#d86645"/>
      <path id="Path_489" data-name="Path 489" d="M-86.17,75.641l-9.883-10.922,14.546-1.162,9.883,10.913Z" transform="translate(375.196 60.278)" fill="#f4a1c2"/>
      <path id="Path_490" data-name="Path 490" d="M-92.769,60.394l7.506,1.26-5.522,5.129-7.5-1.26Z" transform="translate(358.716 36.943)" fill="#c942c2"/>
      <path id="Path_491" data-name="Path 491" d="M-83.1,103.343l-46.271.655,27.443-36.741L-55.66,66.6Z" transform="translate(129.374 82.748)" fill="#ff95a6"/>
    </g>
    <g id="Group_326" data-name="Group 326" transform="translate(106.462 237.388)">
      <path id="Path_492" data-name="Path 492" d="M-85.642,85.148l7.171-27.66L-61.086,79.83l-7.171,27.652Z" transform="translate(216.165 31.66)" fill="#d86645"/>
      <path id="Path_493" data-name="Path 493" d="M-89.233,77.456-81.5,70.7l.633,10.152L-88.6,87.608Z" transform="translate(189.671 129.122)" fill="#d86645"/>
      <path id="Path_494" data-name="Path 494" d="M-88.314,83.166l-6.639-27.791,25.836,11.577,6.642,27.783Z" transform="translate(147.475 16.077)" fill="#c942c2"/>
      <path id="Path_495" data-name="Path 495" d="M-81.989,73.122l-5.944-4.05,6.774-2.217,5.943,4.05Z" transform="translate(199.268 100.765)" fill="#c942c2"/>
      <path id="Path_496" data-name="Path 496" d="M-79.546,68.791l-1.877,10.1-6.795-7.576,1.882-10.1Z" transform="translate(197.156 59.16)" fill="#d86645"/>
      <path id="Path_497" data-name="Path 497" d="M-85.133,66.018l7.174-.507-3.939,5.94-7.175.507Z" transform="translate(190.856 90.852)" fill="#c942c2"/>
      <path id="Path_498" data-name="Path 498" d="M-95.313,86.607l11.081-20.085,9.08,20.837-11.076,20.085Z" transform="translate(144.82 98.308)" fill="#ffff45"/>
      <path id="Path_499" data-name="Path 499" d="M-79.327,83.437l-14.5-2.52L-83.1,71.042l14.513,2.512Z" transform="translate(155.746 131.657)" fill="#c942c2"/>
      <path id="Path_500" data-name="Path 500" d="M-79.23,80.193-85.252,75.9l7.012-2.135,6.025,4.3Z" transform="translate(219.043 151.729)" fill="#d86645"/>
      <path id="Path_501" data-name="Path 501" d="M-77.177,80.269l-3.792,9.915-5.494-8.966,3.792-9.907Z" transform="translate(210.11 133.632)" fill="#c942c2"/>
      <path id="Path_502" data-name="Path 502" d="M-73.651,85.095l.9,14.7-12.088-8.173-.912-14.693Z" transform="translate(215.387 175.093)" fill="#f4a1c2"/>
      <path id="Path_503" data-name="Path 503" d="M-87.606,75.79l2.466,9.964-9.318-4.082-2.466-9.964Z" transform="translate(132.937 136.564)" fill="#d86645"/>
      <path id="Path_504" data-name="Path 504" d="M-94.864,81.391l12.946-7.028-2.3,14.407L-97.162,95.8Z" transform="translate(131.175 156.16)" fill="#c942c2"/>
      <path id="Path_505" data-name="Path 505" d="M-81.465,75.116l2.9-9.842,5.984,8.221-2.9,9.85Z" transform="translate(246.979 89.101)" fill="#d86645"/>
      <path id="Path_506" data-name="Path 506" d="M-71.821,69.019l-7.363-.23,4.631-5.636,7.363.229Z" transform="translate(263.804 73.453)" fill="#c942c2"/>
      <path id="Path_507" data-name="Path 507" d="M-69.582,83.11l-13.593,5.661,3.759-14.1,13.593-5.67Z" transform="translate(234.364 116.637)" fill="#f4a1c2"/>
      <path id="Path_508" data-name="Path 508" d="M-90.187,87.029l7.15-12.868,5.788,13.392-7.15,12.869Z" transform="translate(182.636 154.661)" fill="#c942c2"/>
      <path id="Path_509" data-name="Path 509" d="M-88.877,86.556l-4.573,2.692.654-5.219,4.573-2.683Z" transform="translate(158.563 207.664)" fill="#d86645"/>
      <path id="Path_510" data-name="Path 510" d="M-87.97,81.876l5.383,5.375-7.473.982-5.383-5.383Z" transform="translate(143.854 211.583)" fill="#c942c2"/>
      <path id="Path_511" data-name="Path 511" d="M-77.659,79.871l13.789,5.162-12.386,7.706-13.789-5.162Z" transform="translate(183.681 196.786)" fill="#c942c2"/>
      <path id="Path_512" data-name="Path 512" d="M-72.824,73.694l-1.023,4.475-2.888-3.51,1.023-4.475Z" transform="translate(281.88 125.325)" fill="#d86645"/>
      <path id="Path_513" data-name="Path 513" d="M-71.3,74.274l14.717-.426-8.557,11.814-14.721.425Z" transform="translate(258.837 152.356)" fill="#c942c2"/>
      <path id="Path_514" data-name="Path 514" d="M-75.2,71.26l5.915-2.9-1.3,6.389-5.907,2.9Z" transform="translate(283.631 111.896)" fill="#c942c2"/>
      <path id="Path_515" data-name="Path 515" d="M-92.194,91.96l-4.68,9.146-4.349-9.2,4.68-9.138Z" transform="translate(101.222 218.132)" fill="#d86645"/>
      <path id="Path_516" data-name="Path 516" d="M-93.717,82.384l14.411-3.035L-85.618,92.5l-14.406,3.044Z" transform="translate(110.063 192.939)" fill="#f4a1c2"/>
      <path id="Path_517" data-name="Path 517" d="M-88.167,86.127l-4.863,5.849-1.653-7.354,4.864-5.85Z" transform="translate(149.463 188.68)" fill="#c942c2"/>
      <path id="Path_518" data-name="Path 518" d="M-89.86,87.162l22.727-40.316,17.925,42.206-22.727,40.316Z" transform="translate(185.049 -46.846)" fill="#ff95a6"/>
    </g>
    <g id="Group_327" data-name="Group 327" transform="translate(313.997 318.192)">
      <path id="Path_519" data-name="Path 519" d="M-32.626,72.84l27.4,8.1L-28.143,97.563l-27.4-8.1Z" transform="translate(230.695 64.117)" fill="#d86645"/>
      <path id="Path_520" data-name="Path 520" d="M-54.431,68.89l6.487,7.96-10.169.287-6.5-7.96Z" transform="translate(163.795 34.975)" fill="#d86645"/>
      <path id="Path_521" data-name="Path 521" d="M-39.472,69.418l28-5.7L-23.913,89.151l-28,5.7Z" transform="translate(257.495 -3.194)" fill="#c942c2"/>
      <path id="Path_522" data-name="Path 522" d="M-59.562,76.145l4.246-5.808,1.988,6.847-4.246,5.809Z" transform="translate(201.027 45.652)" fill="#c942c2"/>
      <path id="Path_523" data-name="Path 523" d="M-45.258,78.956-55.28,76.747l7.8-6.537,10.03,2.217Z" transform="translate(232.618 44.715)" fill="#d86645"/>
      <path id="Path_524" data-name="Path 524" d="M-52.371,73.359l.27,7.191-5.809-4.14-.27-7.183Z" transform="translate(211.229 37.461)" fill="#c942c2"/>
      <path id="Path_525" data-name="Path 525" d="M-42,62.9l19.708,11.757-21.132,8.369L-63.129,71.278Z" transform="translate(174.717 -9.21)" fill="#ffff45"/>
      <path id="Path_526" data-name="Path 526" d="M-64.314,78.685l3-14.415,9.507,11.061L-54.8,89.754Z" transform="translate(165.97 0.891)" fill="#c942c2"/>
      <path id="Path_527" data-name="Path 527" d="M-66.577,78.659l4.5-5.874,1.889,7.085-4.491,5.874Z" transform="translate(149.278 63.706)" fill="#d86645"/>
      <path id="Path_528" data-name="Path 528" d="M-55.782,80.943l-9.785-4.122,9.146-5.2,9.776,4.123Z" transform="translate(156.727 55.154)" fill="#c942c2"/>
      <path id="Path_529" data-name="Path 529" d="M-57,84l-14.718.409L-63.148,72.6l14.726-.409Z" transform="translate(111.383 59.334)" fill="#f4a1c2"/>
      <path id="Path_530" data-name="Path 530" d="M-55.015,70.368-65.061,72.5l4.393-9.171L-50.622,61.2Z" transform="translate(160.459 -21.774)" fill="#d86645"/>
      <path id="Path_531" data-name="Path 531" d="M-54.216,63.566l6.577,13.171-14.317-2.79-6.585-13.163Z" transform="translate(134.783 -24.829)" fill="#c942c2"/>
      <path id="Path_532" data-name="Path 532" d="M-51.19,76.825l9.751,3.223-8.426,5.711-9.744-3.232Z" transform="translate(200.689 93.511)" fill="#d86645"/>
      <path id="Path_533" data-name="Path 533" d="M-56.115,86.538l.483-7.346,5.481,4.818-.483,7.347Z" transform="translate(226.459 110.975)" fill="#c942c2"/>
      <path id="Path_534" data-name="Path 534" d="M-58.256,88.726l-5.2-13.776L-49.5,79.187l5.2,13.769Z" transform="translate(172.282 79.679)" fill="#f4a1c2"/>
      <path id="Path_535" data-name="Path 535" d="M-55.593,67.8l12.631,7.576-13.581,5.335-12.631-7.576Z" transform="translate(130.122 26.906)" fill="#c942c2"/>
      <path id="Path_536" data-name="Path 536" d="M-71.509,68.977l-2.52-4.664,5.186.835,2.528,4.654Z" transform="translate(94.301 1.208)" fill="#d86645"/>
      <path id="Path_537" data-name="Path 537" d="M-68.048,69.832-73.6,75.027l-.729-7.5,5.555-5.195Z" transform="translate(92.075 -13.417)" fill="#c942c2"/>
      <path id="Path_538" data-name="Path 538" d="M-60.4,80.406l-5.629,13.6-7.289-12.631,5.62-13.613Z" transform="translate(99.539 26.683)" fill="#c942c2"/>
      <path id="Path_539" data-name="Path 539" d="M-59.025,85.353l-4.434-1.179,3.608-2.765,4.426,1.17Z" transform="translate(172.282 127.328)" fill="#d86645"/>
      <path id="Path_540" data-name="Path 540" d="M-55.92,87.09-56,101.816l-11.519-8.958.074-14.726Z" transform="translate(142.311 103.158)" fill="#c942c2"/>
      <path id="Path_541" data-name="Path 541" d="M-55.451,83.193l2.692,6-6.34-1.513-2.692-6Z" transform="translate(184.587 129.388)" fill="#c942c2"/>
      <path id="Path_542" data-name="Path 542" d="M-67.474,65.515l-8.975-4.982,9.334-4.041,8.975,4.99Z" transform="translate(76.449 -56.492)" fill="#d86645"/>
      <path id="Path_543" data-name="Path 543" d="M-59.869,64.525l2.561,14.5-12.934-6.749L-72.8,57.776Z" transform="translate(103.343 -47.019)" fill="#f4a1c2"/>
      <path id="Path_544" data-name="Path 544" d="M-66.37,69.638l-5.686-5.056,7.4-1.407,5.686,5.057Z" transform="translate(108.861 -7.185)" fill="#c942c2"/>
      <path id="Path_545" data-name="Path 545" d="M-5.859,68.932,33.664,93-9.123,109.493-48.645,85.425Z" transform="translate(281.565 35.285)" fill="#ff95a6"/>
    </g>
    <g id="Group_328" data-name="Group 328" transform="translate(489.005 21.018)">
      <path id="Path_546" data-name="Path 546" d="M-23.067,74.346l1.342,28.543-23.218-16.2-1.342-28.536Z" transform="translate(123.971 252.951)" fill="#d86645"/>
      <path id="Path_547" data-name="Path 547" d="M-35.337,57.167-40.72,65.9-44.328,56.4l5.383-8.745Z" transform="translate(138.409 175.475)" fill="#d86645"/>
      <path id="Path_548" data-name="Path 548" d="M-13.511,55.1,1.052,79.681l-28.1-3.411L-41.621,51.694Z" transform="translate(158.38 205.287)" fill="#c942c2"/>
      <path id="Path_549" data-name="Path 549" d="M-38.9,53.111l6.872,2.11-5.809,4.123-6.88-2.11Z" transform="translate(135.563 215.741)" fill="#c942c2"/>
      <path id="Path_550" data-name="Path 550" d="M-41.382,67.337l-1.195-10.194,8.729,5.227,1.195,10.193Z" transform="translate(151.326 245.487)" fill="#d86645"/>
      <path id="Path_551" data-name="Path 551" d="M-36.193,60.666l-6.709,2.61,2-6.847,6.7-2.6Z" transform="translate(148.934 221.021)" fill="#c942c2"/>
      <path id="Path_552" data-name="Path 552" d="M-33.464,55.88-38.1,78.345l-14.84-17.221L-48.3,38.659Z" transform="translate(74.851 109.122)" fill="#ffff45"/>
      <path id="Path_553" data-name="Path 553" d="M-34.362,48.634l14.6-1.89-7.33,12.607-14.6,1.9Z" transform="translate(157.854 168.768)" fill="#c942c2"/>
      <path id="Path_554" data-name="Path 554" d="M-43.294,47.29l7.02,2.324-6.062,4.115L-49.364,51.4Z" transform="translate(101.256 172.795)" fill="#d86645"/>
      <path id="Path_555" data-name="Path 555" d="M-47.218,58.43l.688-10.594,7.9,6.937-.687,10.595Z" transform="translate(117.084 176.83)" fill="#c942c2"/>
      <path id="Path_556" data-name="Path 556" d="M-45.26,56.267l-5.22-13.776,13.973,4.23,5.219,13.768Z" transform="translate(93.021 137.393)" fill="#f4a1c2"/>
      <path id="Path_557" data-name="Path 557" d="M-46.443,45.175l-5.3-8.786,10.1,1.138,5.31,8.794Z" transform="translate(83.699 92.379)" fill="#d86645"/>
      <path id="Path_558" data-name="Path 558" d="M-40.1,46.969-50.385,57.507l-2.062-14.44,10.284-10.545Z" transform="translate(78.511 63.85)" fill="#c942c2"/>
      <path id="Path_559" data-name="Path 559" d="M-41.994,61.277l.139,10.267L-50,65.458l-.148-10.267Z" transform="translate(95.449 231.086)" fill="#d86645"/>
      <path id="Path_560" data-name="Path 560" d="M-49,61.054l7.1-1.955-2.757,6.749-7.1,1.964Z" transform="translate(83.605 259.918)" fill="#c942c2"/>
      <path id="Path_561" data-name="Path 561" d="M-50.349,60.148l11.306-9.433.581,14.578-11.306,9.433Z" transform="translate(93.987 198.068)" fill="#f4a1c2"/>
      <path id="Path_562" data-name="Path 562" d="M-32.561,54.257l-3.027,14.415-9.49-11.077,3.019-14.415Z" transform="translate(132.876 142.479)" fill="#c942c2"/>
      <path id="Path_563" data-name="Path 563" d="M-42.845,41.16l3.583-3.919.917,5.178-3.575,3.919Z" transform="translate(149.345 98.662)" fill="#d86645"/>
      <path id="Path_564" data-name="Path 564" d="M-35.314,43.194l-6.734-3.543L-35.2,36.51l6.733,3.534Z" transform="translate(155.231 93.273)" fill="#c942c2"/>
      <path id="Path_565" data-name="Path 565" d="M-33.42,51.457l-14.7-.851,9.548-11.028,14.7.851Z" transform="translate(110.42 115.902)" fill="#c942c2"/>
      <path id="Path_566" data-name="Path 566" d="M-55.077,57.514l-.336-4.572,3.8,2.5.344,4.565Z" transform="translate(56.632 214.494)" fill="#d86645"/>
      <path id="Path_567" data-name="Path 567" d="M-41.618,61.748l-13.941,4.762,4.688-13.818,13.932-4.762Z" transform="translate(55.558 177.521)" fill="#c942c2"/>
      <path id="Path_568" data-name="Path 568" d="M-49.948,60.989-54.734,65.5l-.655-6.487L-50.6,54.5Z" transform="translate(56.804 225.992)" fill="#c942c2"/>
      <path id="Path_569" data-name="Path 569" d="M-45.229,45.457l1.767-10.12,6.88,7.5-1.767,10.111Z" transform="translate(131.759 84.621)" fill="#d86645"/>
      <path id="Path_570" data-name="Path 570" d="M-35.835,46.367-48.7,53.534-46.561,39.1l12.86-7.174Z" transform="translate(106.184 59.47)" fill="#f4a1c2"/>
      <path id="Path_571" data-name="Path 571" d="M-41.2,45.815l2.913-7.027,3.755,6.536-2.912,7.028Z" transform="translate(161.47 110.074)" fill="#c942c2"/>
      <path id="Path_572" data-name="Path 572" d="M-13.784,56.029l-9.776,45.228L-53.175,66.25l9.785-45.232Z" transform="translate(73.137 -21.018)" fill="#ff95a6"/>
    </g>
  </g>
</svg>
