<svg xmlns="http://www.w3.org/2000/svg" xmlns:xlink="http://www.w3.org/1999/xlink" width="120.39" height="120.061" viewBox="0 0 120.39 120.061">
  <defs>
    <radialGradient id="radial-gradient" cx="-145.889" cy="192.166" r="62.399" gradientTransform="translate(0.168 0.17)" gradientUnits="userSpaceOnUse">
      <stop offset="0.366" stop-color="#fff"/>
      <stop offset="0.516" stop-color="#fff" stop-opacity="0.706"/>
      <stop offset="0.681" stop-color="#fff" stop-opacity="0.404"/>
      <stop offset="0.817" stop-color="#fff" stop-opacity="0.188"/>
      <stop offset="0.919" stop-color="#fff" stop-opacity="0.051"/>
      <stop offset="0.973" stop-color="#fff" stop-opacity="0"/>
    </radialGradient>
    <radialGradient id="radial-gradient-2" cx="-137.301" cy="182.479" r="44.731" gradientTransform="translate(2.762 1.739) scale(0.948 0.948)" gradientUnits="userSpaceOnUse">
      <stop offset="0" stop-color="#ffff80" stop-opacity="0.6"/>
      <stop offset="1" stop-color="#ff0" stop-opacity="0"/>
    </radialGradient>
    <linearGradient id="linear-gradient" x1="0.5" y1="0.751" x2="0.5" y2="-0.058" gradientUnits="objectBoundingBox">
      <stop offset="0.258" stop-color="#ff0" stop-opacity="0.4"/>
      <stop offset="0.855" stop-color="#ff0" stop-opacity="0.4"/>
    </linearGradient>
  </defs>
  <g id="Group_229" data-name="Group 229" transform="translate(207.38 -130.09)">
    <path id="Path_332" data-name="Path 332" d="M-137.145,130.09l-10.041,60.03-10.04-60.03h20.081Zm-45.325,11.464-8.123,5.9,43.407,42.664-27.16-54.467Zm-21.807,30.016-3.1,9.549,60.194,9-53.989-28.1Zm0,37.1,3.1,9.549,53.989-28.1-60.194,9Zm21.807,30.014,8.124,5.9,27.16-54.468-43.407,42.664Zm35.286,11.466h10.04l-10.042-60.031-10.04,60.031Zm35.284-11.466,8.123-5.9-43.409-42.663,27.163,54.468Zm18.705-20.465,3.1-9.551,3.1-9.549-60.2-9Zm3.1-46.652-3.1-9.549-53.99,28.1,60.2-9ZM-111.9,141.554l-8.122-5.9-27.162,54.467,43.409-42.664Z" fill="url(#radial-gradient)"/>
    <g id="Group_228" data-name="Group 228">
      <g id="Group_226" data-name="Group 226">
        <path id="Path_333" data-name="Path 333" d="M-147.153,146.21c4.806,0,15.463,26.975,15.463,26.975s28.28,0,30.432,6.369S-122.135,202.6-122.135,202.6s9.111,27.42,3.346,30.91-28.364-12.734-28.364-12.734-24.519,16.363-28.362,12.734,3.345-30.91,3.345-30.91-23.529-17.311-20.876-23.041,30.432-6.369,30.432-6.369S-151.957,146.21-147.153,146.21Z" fill="#fd0"/>
      </g>
      <path id="Path_334" data-name="Path 334" d="M-173.858,231.468c-1.085-2.514.733-15.238,4.154-28.221a2.565,2.565,0,0,0-.959-2.717c-10.986-8.084-20.35-17.425-20.04-19.99,1.205-2.193,14.367-4.476,28.136-4.795a2.559,2.559,0,0,0,2.324-1.621c4.293-10.859,10.394-23.152,13.079-25.195,2.687,2.043,8.788,14.336,13.08,25.195a2.559,2.559,0,0,0,2.382,1.621c13.779,0,27.126,2.209,28.006,4.629.7,2.475-8.809,12.078-19.953,20.145a2.562,2.562,0,0,0-.929,2.882c4.313,12.991,6.429,26.3,4.441,27.918h0a1.76,1.76,0,0,1-.783.116c-5.1,0-17.886-7.817-24.75-12.745a2.56,2.56,0,0,0-1.494-.48,2.567,2.567,0,0,0-1.423.43c-7.432,4.959-20.852,12.828-25.216,12.828Z" fill="url(#radial-gradient-2)"/>
      <path id="Path_335" data-name="Path 335" d="M-103.7,180.374c-.879-2.42-14.227-4.625-28.006-4.629a2.559,2.559,0,0,1-2.382-1.621c-4.292-10.859-10.393-23.152-13.08-25.195-2.685,2.043-8.786,14.336-13.079,25.195a2.559,2.559,0,0,1-2.324,1.621c-13.769.319-26.931,2.6-28.136,4.795-.175,1.438,2.7,5.006,7.185,9.289,15.56-2.139,39.86,10.547,60.459,10.254C-112.173,192.108-103.009,182.8-103.7,180.374Z" fill="url(#linear-gradient)"/>
      <g id="Group_227" data-name="Group 227">
        <path id="Path_336" data-name="Path 336" d="M-117.325,177.2a108.017,108.017,0,0,0-11.752-1.244c-5.342,6.852-11.885,15.295-16.85,21.877a90.051,90.051,0,0,0,14.279,2.164C-127.458,193.288-121.939,184.564-117.325,177.2Z" fill="url(#linear-gradient)"/>
        <path id="Path_337" data-name="Path 337" d="M-177.046,190.241a153.962,153.962,0,0,1,15.485,3.573c5.238-6.411,13.769-16.547,20.691-24.729-1.626-3.793-3.371-7.545-5.023-10.779Z" fill="url(#linear-gradient)"/>
      </g>
    </g>
  </g>
</svg>
