<svg xmlns="http://www.w3.org/2000/svg" width="1103.908" height="164.913" viewBox="0 0 1103.908 164.913">
  <g id="Group_333" data-name="Group 333" transform="translate(-395.833 -306)">
    <g id="Group_332" data-name="Group 332" transform="translate(364.848 -791.12)">
      <path id="Path_599" data-name="Path 599" d="M151.967,1098.81q8.334,0,10.664,9.473l21.715,78.727,22.489-75.568.969-2.7v.224q2.908-6.092,5.815-8.121t8.337-2.031h22.684a6.3,6.3,0,0,1,4.46,2.144q2.13,2.144,2.132,6.88a23.7,23.7,0,0,1-1.357,7.442L212.844,1243.63a45.2,45.2,0,0,1-3.489,9.248,7.788,7.788,0,0,1-6.592,4.059H167.672q-3.3.221-5.429-3.61a46.626,46.626,0,0,1-3.684-8.8l-18.031-58.648-17.45,58.648a51.822,51.822,0,0,1-3.489,8.348q-1.939,3.608-4.846,3.832l-18.419.227-17.643-.227a8.116,8.116,0,0,1-5.427-3.721q-2.329-3.267-4.265-10.487L32.15,1115.276a25.97,25.97,0,0,1-1.164-6.993q0-4.734,2.229-7.1t4.363-2.369H60.262q5.426,0,8.335,2.031t5.429,7.9l.969,2.7,22.88,75.568,21.325-78.951a11.461,11.461,0,0,1,3.974-6.88,11.092,11.092,0,0,1,7.077-2.369Z" transform="translate(0 1.606)"/>
      <path id="Path_600" data-name="Path 600" d="M141.239,1247.819a27.279,27.279,0,0,1,1.067-7.557q1.062-3.721,1.26-4.176l43.04-127.023a15.846,15.846,0,0,1,5.139-7.333,14.07,14.07,0,0,1,8.046-2.821H227.71a13.016,13.016,0,0,1,8.337,3.161,14.608,14.608,0,0,1,4.46,6.992l43.429,127.023c.127.758.515,2.3,1.162,4.627a24.967,24.967,0,0,1,.969,6.654q0,8.126-7.754,9.477H251.752a13.123,13.123,0,0,1-6.884-1.693,7.551,7.551,0,0,1-3.586-4.85l-6.01-22.563H192.035l-6.008,22.563a7.655,7.655,0,0,1-3.491,4.85,12.615,12.615,0,0,1-6.785,1.693H148.8Q141.24,1255.493,141.239,1247.819Zm74.45-58.209h12.6l-15.317-53.021-15.122,53.021Z" transform="translate(108.943 1.7)"/>
      <path id="Path_601" data-name="Path 601" d="M300.824,1243.375q-2.13-15.336-8.821-21.31a29.141,29.141,0,0,0-16.578-7.1,20.52,20.52,0,0,0-3.294-.227,10.548,10.548,0,0,0-3.3.451l-.193.225v28.869a28.186,28.186,0,0,1-.679,6.878,7.06,7.06,0,0,1-3.684,4.283q-3.01,1.694-9.4,1.694H236.844q-6.011.221-9.5-2.595a9.451,9.451,0,0,1-3.491-7.781l.2-60.891v-78.484a7.825,7.825,0,0,1,2.908-5.977,10.138,10.138,0,0,1,6.98-2.593h44.012q29.08-.221,43.04,11.39t15.122,36.423a23,23,0,0,1,.1,3.5c-.068.825-.1,1.54-.1,2.141V1157q-.971,13.08-5.911,20.745a60.182,60.182,0,0,1-13.088,14.21l.193.227a39.476,39.476,0,0,1,15.122,15.56,69.494,69.494,0,0,1,7.66,21.2,89.237,89.237,0,0,1,1.65,19.847,8.082,8.082,0,0,1-2.328,6.088,9.072,9.072,0,0,1-6.592,2.257H309.163q-5.046,0-6.494-2.933a14.687,14.687,0,0,1-1.55-6.2C301.048,1245.82,300.954,1244.278,300.824,1243.375Zm-28.888-70.589a36.181,36.181,0,0,0,16.383-3.723q7.462-3.719,7.465-17.252,0-9.469-4.944-14.432t-14.25-4.964h-15.9v40.37h11.243Z" transform="translate(190.371 1.604)"/>
      <path id="Path_602" data-name="Path 602" d="M404.857,1255.265q-1.161-.678-16.867-19.853t-45.95-56.632q-2.908-3.387-3.684-3.386c-.519,0-.842.34-.969,1.016a19.342,19.342,0,0,0-.193,3.273v67.459a9.659,9.659,0,0,1-2.229,6.318,6.892,6.892,0,0,1-5.525,2.708H303.652a7.936,7.936,0,0,1-6.4-3.5,13.026,13.026,0,0,1-2.715-8.236v-132.89a14.185,14.185,0,0,1,2.908-8.8q2.908-3.833,6.787-3.837h24.042a10.8,10.8,0,0,1,5.139,1.014,19.252,19.252,0,0,1,4.749,4.628q8.916,10.829,29.081,35.308t31.6,38.018A4.94,4.94,0,0,0,400.98,1179c.776,0,1.162-1.2,1.162-3.611v-67.235a9.835,9.835,0,0,1,2.327-6.429,6.734,6.734,0,0,1,5.236-2.821h24.623a9.429,9.429,0,0,1,7.366,3.61,12.442,12.442,0,0,1,3.1,8.349v134.243a12.356,12.356,0,0,1-3.005,8.122,8.8,8.8,0,0,1-6.882,3.611H413a26.266,26.266,0,0,1-5.137-.338A11.007,11.007,0,0,1,404.857,1255.265Z" transform="translate(260.479 1.7)"/>
      <path id="Path_603" data-name="Path 603" d="M386.5,1246.859V1109.283a11.723,11.723,0,0,1,2.327-7.328,7.409,7.409,0,0,1,6.205-3.046h26.56a7.308,7.308,0,0,1,5.913,3.046,11.4,11.4,0,0,1,2.426,7.328v137.576a11.185,11.185,0,0,1-2.426,7.555,7.511,7.511,0,0,1-5.913,2.819H395.03a7.631,7.631,0,0,1-6.205-2.819A11.5,11.5,0,0,1,386.5,1246.859Z" transform="translate(349.966 1.7)"/>
      <path id="Path_604" data-name="Path 604" d="M534,1255.265q-1.161-.678-16.867-19.853t-45.95-56.632q-2.908-3.387-3.684-3.386c-.519,0-.842.34-.971,1.016a19.6,19.6,0,0,0-.191,3.273v67.459a9.651,9.651,0,0,1-2.231,6.318,6.889,6.889,0,0,1-5.525,2.708H432.791a7.942,7.942,0,0,1-6.4-3.5,13.035,13.035,0,0,1-2.713-8.236v-132.89a14.184,14.184,0,0,1,2.908-8.8q2.908-3.833,6.785-3.837h24.044a10.79,10.79,0,0,1,5.137,1.014,19.252,19.252,0,0,1,4.751,4.628q8.916,10.829,29.081,35.308t31.6,38.018a4.93,4.93,0,0,0,2.133,1.128c.774,0,1.162-1.2,1.162-3.611v-67.235a9.835,9.835,0,0,1,2.327-6.429,6.731,6.731,0,0,1,5.234-2.821h24.623a9.436,9.436,0,0,1,7.368,3.61,12.451,12.451,0,0,1,3.1,8.349v134.243a12.356,12.356,0,0,1-3.005,8.122,8.808,8.808,0,0,1-6.884,3.611H542.138a26.253,26.253,0,0,1-5.137-.338A10.982,10.982,0,0,1,534,1255.265Z" transform="translate(388.112 1.7)"/>
      <path id="Path_605" data-name="Path 605" d="M509.772,1179.576a93.458,93.458,0,0,1,9.306-41.788q9.308-18.932,25.206-29.8a59.947,59.947,0,0,1,34.51-10.866,52.865,52.865,0,0,1,5.622.225q11.242.9,17.448,2.912l.969.223a4.5,4.5,0,0,1,3.3,1.792,6.615,6.615,0,0,1,1.162,4.034,11.764,11.764,0,0,1-.776,4.257l-7.949,20.839q-3.1,9.189-9.306,9.186-15.9,0-25.69,7.618t-12.7,22.631a50.214,50.214,0,0,0-.969,9.187,40.168,40.168,0,0,0,5.718,21.287q5.716,9.409,17.353,12.773a52.921,52.921,0,0,0,11.052,1.343q12.213,0,19.484-6.834a31.835,31.835,0,0,0,9.4-17.366H602.06a6.219,6.219,0,0,1-5.041-2.353,9.021,9.021,0,0,1-1.938-5.939v-29.352a8.858,8.858,0,0,1,2.036-5.826,6.2,6.2,0,0,1,4.944-2.466h45.174a7.014,7.014,0,0,1,5.427,2.353,8.512,8.512,0,0,1,2.134,5.939l-.388,16.133q-.2,2.687-.486,9.522t-.872,12.66a79.2,79.2,0,0,1-11.826,35.739,75.463,75.463,0,0,1-25.592,25.209,62.978,62.978,0,0,1-32.572,9.185,64.15,64.15,0,0,1-35.868-11.091,81.687,81.687,0,0,1-27.145-30.136A85.44,85.44,0,0,1,509.772,1179.576Z" transform="translate(473.099 0)"/>
    </g>
    <g id="Group_331" data-name="Group 331" transform="translate(390.014 -791.12)">
      <path id="Path_599-2" data-name="Path 599" d="M151.967,1098.81q8.334,0,10.664,8.142l21.715,67.666,22.489-64.951.969-2.324v.193q2.908-5.236,5.815-6.98t8.337-1.745h22.684a6.765,6.765,0,0,1,4.46,1.843q2.13,1.843,2.132,5.913a17.832,17.832,0,0,1-1.357,6.4l-37.032,110.32a35.684,35.684,0,0,1-3.489,7.949q-1.939,3.1-6.592,3.489H167.672q-3.3.19-5.429-3.1a37.246,37.246,0,0,1-3.684-7.561l-18.031-50.408-17.45,50.408a41.383,41.383,0,0,1-3.489,7.175,6.159,6.159,0,0,1-4.846,3.294l-18.419.2-17.643-.2a8.266,8.266,0,0,1-5.427-3.2q-2.329-2.808-4.265-9.014L32.15,1112.962a19.476,19.476,0,0,1-1.164-6.01q0-4.069,2.229-6.106a6.582,6.582,0,0,1,4.363-2.036H60.262q5.426,0,8.335,1.745t5.429,6.787l.969,2.324,22.88,64.951,21.325-67.858a9.675,9.675,0,0,1,3.974-5.913,12.311,12.311,0,0,1,7.077-2.036Z" transform="translate(0 1.606)" fill="#ffd300"/>
      <path id="Path_600-2" data-name="Path 600" d="M141.239,1226.87a20.387,20.387,0,0,1,1.067-6.494q1.062-3.2,1.26-3.588l43.04-109.153a13.85,13.85,0,0,1,5.139-6.3,15.585,15.585,0,0,1,8.046-2.424H227.71a14.3,14.3,0,0,1,8.337,2.717,12.5,12.5,0,0,1,4.46,6.009l43.429,109.153c.127.651.515,1.974,1.162,3.976a18.663,18.663,0,0,1,.969,5.718q0,6.983-7.754,8.144H251.752a14.849,14.849,0,0,1-6.884-1.455,6.668,6.668,0,0,1-3.586-4.167l-6.01-19.389H192.035L186.027,1229a6.725,6.725,0,0,1-3.491,4.167,14.26,14.26,0,0,1-6.785,1.455H148.8Q141.24,1233.464,141.239,1226.87Zm74.45-50.02h12.6l-15.317-45.562-15.122,45.562Z" transform="translate(104.76 1.7)" fill="#ffd300"/>
      <path id="Path_601-2" data-name="Path 601" d="M300.824,1223.089q-2.13-13.184-8.821-18.32a31.671,31.671,0,0,0-16.578-6.108,23.829,23.829,0,0,0-3.294-.195,12.157,12.157,0,0,0-3.3.388l-.193.193v24.818a20.976,20.976,0,0,1-.679,5.913,6.41,6.41,0,0,1-3.684,3.682q-3.01,1.457-9.4,1.457H236.844q-6.011.19-9.5-2.231a7.7,7.7,0,0,1-3.491-6.689l.2-52.347v-67.47a6.417,6.417,0,0,1,2.908-5.139,11.146,11.146,0,0,1,6.98-2.229h44.012q29.08-.19,43.04,9.792t15.122,31.312a17.013,17.013,0,0,1,.1,3.005c-.068.71-.1,1.324-.1,1.841v4.072q-.971,11.245-5.911,17.834a55.662,55.662,0,0,1-13.088,12.216l.193.195a36.991,36.991,0,0,1,15.122,13.376,54.611,54.611,0,0,1,7.66,18.225,66.248,66.248,0,0,1,1.65,17.062,6.456,6.456,0,0,1-2.328,5.234,10.011,10.011,0,0,1-6.592,1.94H309.163q-5.046,0-6.494-2.521a11.234,11.234,0,0,1-1.55-5.332A35.922,35.922,0,0,0,300.824,1223.089ZM271.936,1162.4a41.134,41.134,0,0,0,16.383-3.2q7.462-3.2,7.465-14.831,0-8.141-4.944-12.407t-14.25-4.267h-15.9V1162.4h11.243Z" transform="translate(183.259 1.604)" fill="#ffd300"/>
      <path id="Path_602-2" data-name="Path 602" d="M404.857,1233.269q-1.161-.583-16.867-17.06t-45.95-48.665q-2.908-2.911-3.684-2.91a.946.946,0,0,0-.969.874,14.323,14.323,0,0,0-.193,2.812v57.969a7.616,7.616,0,0,1-2.229,5.429,7.35,7.35,0,0,1-5.525,2.327H303.652a8.355,8.355,0,0,1-6.4-3.005,10.2,10.2,0,0,1-2.715-7.077V1109.768a11.107,11.107,0,0,1,2.908-7.561,8.817,8.817,0,0,1,6.787-3.3h24.042a12.319,12.319,0,0,1,5.139.872,18.345,18.345,0,0,1,4.749,3.977q8.916,9.305,29.081,30.341t31.6,32.669a5.289,5.289,0,0,0,2.133.969c.776,0,1.162-1.032,1.162-3.1v-57.776a7.77,7.77,0,0,1,2.327-5.525,7.112,7.112,0,0,1,5.236-2.424h24.623a10.068,10.068,0,0,1,7.366,3.1,9.861,9.861,0,0,1,3.1,7.175v115.357a9.782,9.782,0,0,1-3.005,6.979,9.325,9.325,0,0,1-6.882,3.1H413a30.474,30.474,0,0,1-5.137-.291A12.076,12.076,0,0,1,404.857,1233.269Z" transform="translate(250.423 1.7)" fill="#ffd300"/>
      <path id="Path_603-2" data-name="Path 603" d="M386.5,1226.1V1107.827a9.161,9.161,0,0,1,2.327-6.3,7.882,7.882,0,0,1,6.205-2.619h26.56a7.745,7.745,0,0,1,5.913,2.619,8.945,8.945,0,0,1,2.426,6.3V1226.1a8.771,8.771,0,0,1-2.426,6.494,8.039,8.039,0,0,1-5.913,2.424H395.03a8.2,8.2,0,0,1-6.205-2.424A8.984,8.984,0,0,1,386.5,1226.1Z" transform="translate(337.8 1.7)" fill="#ffd300"/>
      <path id="Path_604-2" data-name="Path 604" d="M534,1233.269q-1.161-.583-16.867-17.06t-45.95-48.665q-2.908-2.911-3.684-2.91a.949.949,0,0,0-.971.874,14.516,14.516,0,0,0-.191,2.812v57.969a7.61,7.61,0,0,1-2.231,5.429,7.347,7.347,0,0,1-5.525,2.327H432.791a8.361,8.361,0,0,1-6.4-3.005,10.21,10.21,0,0,1-2.713-7.077V1109.768a11.106,11.106,0,0,1,2.908-7.561,8.814,8.814,0,0,1,6.785-3.3h24.044a12.308,12.308,0,0,1,5.137.872,18.346,18.346,0,0,1,4.751,3.977q8.916,9.305,29.081,30.341t31.6,32.669a5.279,5.279,0,0,0,2.133.969c.774,0,1.162-1.032,1.162-3.1v-57.776a7.77,7.77,0,0,1,2.327-5.525,7.108,7.108,0,0,1,5.234-2.424h24.623a10.075,10.075,0,0,1,7.368,3.1,9.869,9.869,0,0,1,3.1,7.175v115.357a9.782,9.782,0,0,1-3.005,6.979,9.332,9.332,0,0,1-6.884,3.1H542.138a30.458,30.458,0,0,1-5.137-.291A12.048,12.048,0,0,1,534,1233.269Z" transform="translate(373.128 1.7)" fill="#ffd300"/>
      <path id="Path_605-2" data-name="Path 605" d="M509.772,1168.467a71.942,71.942,0,0,1,9.306-36.158,68.993,68.993,0,0,1,25.206-25.787,66.607,66.607,0,0,1,34.51-9.4q3.68,0,5.622.2a90.95,90.95,0,0,1,17.448,2.52l.969.193a4.721,4.721,0,0,1,3.3,1.551,5.189,5.189,0,0,1,1.162,3.491,8.975,8.975,0,0,1-.776,3.684l-7.949,18.031q-3.1,7.951-9.306,7.949-15.9,0-25.69,6.592t-12.7,19.582a37.825,37.825,0,0,0-.969,7.949,31.274,31.274,0,0,0,5.718,18.419q5.716,8.141,17.353,11.052a60.8,60.8,0,0,0,11.052,1.162q12.213,0,19.484-5.913a26.718,26.718,0,0,0,9.4-15.026H602.06a6.64,6.64,0,0,1-5.041-2.036,7.147,7.147,0,0,1-1.938-5.139v-25.4a7.053,7.053,0,0,1,2.036-5.041,6.581,6.581,0,0,1,4.944-2.134h45.174a7.554,7.554,0,0,1,5.427,2.036,6.807,6.807,0,0,1,2.134,5.139l-.388,13.959q-.2,2.325-.486,8.24t-.872,10.954a62.5,62.5,0,0,1-11.826,30.924,71.519,71.519,0,0,1-25.592,21.813,70.5,70.5,0,0,1-32.572,7.947,71.388,71.388,0,0,1-35.868-9.6,75.5,75.5,0,0,1-27.145-26.076A66.158,66.158,0,0,1,509.772,1168.467Z" transform="translate(454.933 0)" fill="#ffd300"/>
    </g>
  </g>
</svg>
