<svg xmlns="http://www.w3.org/2000/svg" width="820.706" height="267.4" viewBox="0 0 820.706 267.4">
  <g id="Group_277" data-name="Group 277" transform="translate(457.189 -461.224)">
    <path id="Path_388" data-name="Path 388" d="M-366,639.673a120.169,120.169,0,0,0,55.05-16.226c17.285-10.2,29.787-25.8,47.887-34.973,9.651-4.892,20.387-8.172,31.513-7.879,12.971.341,24.833,4.628,35.974,10.536,21.382,11.335,41.9,24.338,64.465,33.673,41.077,17,92.916,20.962,134.227,2.15a111.132,111.132,0,0,0,27.675-17.628c7.412-6.562,13.17-14.112,19.032-21.845,5.918-7.807,12.369-16.067,21.623-20.755,12.694-6.429,27.065-5.418,40.265-.781,20.353,7.151,39.3,18.59,57.06,30.676A150.381,150.381,0,0,0,183.831,610.3c6.367,5.238,12.216,10.7,17.983,16.487a190.486,190.486,0,0,0,30.53,25.347A219.548,219.548,0,0,1,191.16,626.5c-.9-.69-2.192.493-1.289,1.189,14.416,11.124,30.071,21.514,47.369,28.473,1.622.653,3.238,1.245,4.856,1.808,20.1,10.933,42.373,16.8,65.6,19.015v-1.679c-19.8-1.892-39.064-6.475-56.7-14.7a117.817,117.817,0,0,0,29.682,3.381,217.571,217.571,0,0,0,27.013-1.6V558.3c-1.06.306-2.115.6-3.151.861-11.883,3.047-24.394,3.8-36.616,3.869a100.776,100.776,0,0,1-27.4-3.383c18.144,9.17,38.157,13.824,58.651,15.256,1.075.076,1.083,1.758,0,1.682-23.717-1.657-46.506-7.572-66.872-19.574-1.492-.563-2.986-1.156-4.481-1.808-15.966-6.959-30.416-17.35-43.724-28.473-.833-.7.363-1.879,1.189-1.189,11.752,9.824,24.321,18.728,38.014,25.64a179.769,179.769,0,0,1-28.178-25.347c-5.324-5.787-10.722-11.251-16.6-16.487a143.522,143.522,0,0,1-13.9-13.685c-16.391-12.085-33.881-23.524-52.666-30.675-12.184-4.638-25.45-5.65-37.166.781-8.541,4.688-14.5,12.948-19.958,20.755-5.412,7.731-10.726,15.283-17.567,21.845A101.912,101.912,0,0,1,11.73,525.992c-38.13,18.814-85.977,14.852-123.892-2.148-20.824-9.336-39.765-22.338-59.5-33.672-10.285-5.908-21.231-10.194-33.2-10.536-10.27-.294-20.18,2.986-29.087,7.879-16.706,9.176-28.246,24.774-44.2,34.971a104.738,104.738,0,0,1-50.811,16.228,79.8,79.8,0,0,1-47.778-12.487c-3.719-2.4-7.676-5.139-11.51-8.182V638.194A97.591,97.591,0,0,0-366,639.673Z" transform="translate(47.028)" fill="#9adbf9"/>
    <path id="Path_389" data-name="Path 389" d="M304.911,595.746c-11.883,3.045-24.4,3.8-36.616,3.869a100.776,100.776,0,0,1-27.4-3.383c18.144,9.17,38.157,13.824,58.65,15.254,1.077.076,1.083,1.758,0,1.682-23.717-1.655-46.506-7.572-66.871-19.572-1.494-.563-2.986-1.157-4.481-1.808-15.966-6.959-30.417-17.35-43.724-28.473-.833-.7.363-1.881,1.189-1.189,11.752,9.822,24.321,18.728,38.013,25.64A179.853,179.853,0,0,1,195.5,562.416c-5.322-5.785-10.722-11.249-16.6-16.485A143.515,143.515,0,0,1,165,532.246c-16.391-12.087-33.881-23.524-52.666-30.675-12.186-4.638-25.45-5.651-37.166.779-8.54,4.69-14.5,12.949-19.958,20.755-5.412,7.733-10.726,15.283-17.567,21.847a101.912,101.912,0,0,1-25.544,17.626c-38.13,18.814-85.977,14.85-123.892-2.148-20.824-9.336-39.765-22.339-59.5-33.674-10.285-5.908-21.231-10.193-33.2-10.534-10.27-.294-20.18,2.986-29.087,7.878-16.706,9.176-28.246,24.775-44.2,34.973A104.738,104.738,0,0,1-328.6,575.3a79.836,79.836,0,0,1-47.779-12.487c-3.718-2.4-7.674-5.141-11.508-8.182V616.97c3.834,3.041,7.79,5.778,11.508,8.182A79.836,79.836,0,0,0-328.6,637.639a104.737,104.737,0,0,0,50.811-16.228c15.954-10.2,27.494-25.8,44.2-34.973,8.907-4.892,18.817-8.172,29.087-7.878,11.974.342,22.92,4.626,33.2,10.534,19.736,11.335,38.677,24.338,59.5,33.674,37.915,17,85.762,20.962,123.892,2.148a101.918,101.918,0,0,0,25.544-17.626c6.841-6.564,12.156-14.114,17.567-21.847,5.462-7.805,11.417-16.067,19.958-20.755,11.717-6.429,24.981-5.417,37.166-.779C131.115,571.059,148.6,582.5,165,594.585a143.528,143.528,0,0,0,13.9,13.685c5.876,5.237,11.276,10.7,16.6,16.486A179.865,179.865,0,0,0,223.674,650.1c-13.691-6.914-26.261-15.818-38.013-25.64-.826-.691-2.022.493-1.189,1.189,13.306,11.123,27.758,21.514,43.724,28.471,1.5.653,2.988,1.247,4.481,1.81,20.365,12,43.153,17.917,66.871,19.572,1.083.076,1.077-1.606,0-1.682-20.492-1.43-40.506-6.084-58.65-15.254a100.781,100.781,0,0,0,27.4,3.383c12.221-.072,24.733-.824,36.616-3.869,1.036-.266,2.091-.555,3.151-.863V594.883C307,595.19,305.947,595.48,304.911,595.746Z" transform="translate(47.277 24.959)" fill="#06baf2"/>
    <g id="Group_272" data-name="Group 272" transform="translate(-332.432 479.396)" opacity="0.39">
      <path id="Path_390" data-name="Path 390" d="M29.714,600.87c.547.057,1.092.121,1.64.173v-1.679c-.548-.052-1.092-.13-1.64-.185Z" transform="translate(664.595 -385.284)" fill="#00a8ea"/>
      <path id="Path_391" data-name="Path 391" d="M309.773,569.961c-11.883,3.047-24.394,3.8-36.616,3.869a100.84,100.84,0,0,1-27.4-3.381c18.144,9.17,38.157,13.823,58.651,15.254,1.075.076,1.083,1.758,0,1.682-23.719-1.655-46.506-7.572-66.872-19.574-1.494-.563-2.986-1.156-4.481-1.808-15.966-6.959-30.416-17.35-43.724-28.473-.833-.7.363-1.879,1.189-1.189,11.752,9.824,24.321,18.728,38.014,25.64a179.692,179.692,0,0,1-28.178-25.347c-5.324-5.785-10.722-11.251-16.6-16.487a143.338,143.338,0,0,1-13.9-13.685c-16.391-12.085-33.881-23.524-52.666-30.675-12.186-4.638-25.45-5.649-37.166.781-8.54,4.688-14.5,12.948-19.958,20.755-5.412,7.733-10.726,15.283-17.567,21.845A101.961,101.961,0,0,1,16.956,536.8c-38.13,18.812-85.977,14.85-123.892-2.15-20.824-9.335-39.765-22.338-59.5-33.672-10.285-5.908-21.231-10.194-33.2-10.536-10.27-.294-20.18,2.986-29.087,7.879-16.706,9.176-28.246,24.774-44.2,34.973a104.736,104.736,0,0,1-50.811,16.226,79.8,79.8,0,0,1-47.778-12.487c-3.719-2.4-7.676-5.139-11.51-8.182v30.4c3.314,2.537,6.677,4.86,9.869,6.922a79.808,79.808,0,0,0,47.778,12.487,104.731,104.731,0,0,0,50.811-16.228c15.956-10.2,27.494-25.8,44.2-34.971,8.907-4.893,18.815-8.174,29.087-7.879,11.972.341,22.92,4.628,33.2,10.536,19.737,11.335,38.677,24.336,59.5,33.672,37.915,17,85.763,20.962,123.892,2.148A101.922,101.922,0,0,0,40.862,548.31c6.84-6.562,12.156-14.114,17.567-21.845,5.462-7.807,11.415-16.067,19.958-20.755,11.717-6.431,24.981-5.418,37.165-.781,18.785,7.151,36.277,18.59,52.666,30.675a143.363,143.363,0,0,0,13.9,13.685,233.941,233.941,0,0,1,16.6,16.487A179.854,179.854,0,0,0,226.9,591.123c-13.693-6.912-26.261-15.816-38.013-25.64-.826-.69-2.024.493-1.189,1.189C201,577.8,215.452,588.186,231.419,595.145c1.5.653,2.988,1.245,4.481,1.808,20.365,12,43.153,17.917,66.871,19.574,1.083.076,1.077-1.607,0-1.682-20.494-1.432-40.507-6.086-58.651-15.256a100.789,100.789,0,0,0,27.4,3.383c12.223-.072,24.735-.823,36.618-3.869,1.036-.266,2.091-.555,3.149-.861v75.125c.545-.066,1.1-.108,1.64-.18V569.1C311.864,569.406,310.809,569.7,309.773,569.961Z" transform="translate(383.026 -472.027)" fill="#00a8ea"/>
    </g>
    <path id="Path_392" data-name="Path 392" d="M305.491,622.056c-11.883,3.046-24.393,3.8-36.616,3.869a100.786,100.786,0,0,1-27.4-3.383c18.144,9.171,38.157,13.824,58.651,15.256,1.075.076,1.083,1.758,0,1.682-23.717-1.657-46.506-7.571-66.872-19.574-1.492-.564-2.984-1.156-4.481-1.808-15.966-6.959-30.416-17.35-43.722-28.473-.834-.7.362-1.879,1.189-1.189,11.752,9.824,24.319,18.728,38.013,25.64a179.773,179.773,0,0,1-28.178-25.347c-5.324-5.787-10.722-11.25-16.6-16.487a143.357,143.357,0,0,1-13.9-13.685c-16.391-12.085-33.881-23.524-52.666-30.675-12.184-4.638-25.448-5.649-37.165.781-8.542,4.688-14.5,12.948-19.959,20.755-5.41,7.731-10.726,15.283-17.566,21.845A101.975,101.975,0,0,1,12.674,588.89c-38.13,18.812-85.977,14.85-123.892-2.15-20.824-9.336-39.765-22.338-59.5-33.673-10.283-5.908-21.231-10.194-33.2-10.536-10.272-.294-20.18,2.986-29.087,7.879-16.708,9.176-28.246,24.774-44.2,34.973a104.753,104.753,0,0,1-50.811,16.226A79.808,79.808,0,0,1-375.8,589.124c-3.719-2.4-7.676-5.139-11.51-8.182v46.233c3.834,3.043,7.79,5.778,11.51,8.182a79.808,79.808,0,0,0,47.778,12.487,104.753,104.753,0,0,0,50.811-16.226c15.956-10.2,27.494-25.8,44.2-34.973,8.907-4.893,18.815-8.174,29.087-7.879,11.972.341,22.92,4.628,33.2,10.536,19.735,11.335,38.677,24.336,59.5,33.673,37.915,17,85.762,20.962,123.892,2.15A101.971,101.971,0,0,0,38.22,617.5c6.84-6.562,12.156-14.114,17.566-21.845,5.462-7.807,11.417-16.067,19.959-20.755,11.717-6.429,24.981-5.418,37.165-.781,18.785,7.151,36.275,18.59,52.666,30.675a143.35,143.35,0,0,0,13.9,13.685c5.876,5.237,11.274,10.7,16.6,16.487a179.773,179.773,0,0,0,28.178,25.347c-13.693-6.912-26.261-15.816-38.013-25.64-.828-.69-2.024.493-1.189,1.189,13.306,11.123,27.756,21.514,43.722,28.473,1.5.653,2.989,1.245,4.481,1.808,20.366,12,43.155,17.917,66.872,19.574,1.083.076,1.075-1.607,0-1.682-20.494-1.432-40.507-6.084-58.651-15.256a100.776,100.776,0,0,0,27.4,3.383c12.223-.072,24.733-.823,36.616-3.869,1.038-.266,2.093-.555,3.151-.861V621.2C307.583,621.5,306.529,621.791,305.491,622.056Z" transform="translate(47.672 42.908)" fill="#00a8ea"/>
    <g id="Group_274" data-name="Group 274" transform="translate(-457.189 473.407)">
      <g id="Group_273" data-name="Group 273">
        <path id="Path_393" data-name="Path 393" d="M-456.393,559.318c3.443-23.938,28.214-45.655,52.3-46.129a24.01,24.01,0,0,1,6.892-11.242c5.218-4.557,12.262-8.059,19.283-7.75a27.257,27.257,0,0,1,11.017,2.419c.183.094.331.205.5.3a26.091,26.091,0,0,1-1.6-8.308c-.316-11.9,15.155-16.644,24.177-18.622,30.333-6.641,66.75,9.477,89.979,28.448,29.908,24.424,56.651,54.867,78.786,86.47,19.317,27.578,43.735,61.658,76.2,76.328a36.958,36.958,0,0,1,11.685,4.431c3.985,2.581-52.853-5.3-94.163-39.974-13.708-11.508-24.205-26.059-36.423-39.045a300.319,300.319,0,0,0-39.562-35.535c-13.812-10.245-29.025-15.769-46.3-15.436-13.215.256-31.943,3.711-40.307,15.135,6.478,3.787,11.883,10.046,13.685,17.148,2.73,10.764.052,19.665-10.065,24.693-.621.31-1.253.59-1.892.848a23.338,23.338,0,0,1,6.564,10.436c1.971,7.773-1.248,16.5-9.032,19.4-.268.1-.542.168-.812.249A31.558,31.558,0,0,1-334.983,637c5.585,13.032-4.11,24.39-15.217,29.751-11.873,5.73-26.328,1.433-35.331-6.959-.077.284-.133.567-.235.853-1.477,4.091-6.12,6.408-10.246,6.323-4.434-.091-7.789-2.8-9.708-6.436a37.961,37.961,0,0,1-24.227-2.745c-12.822-6.1-17.757-21.117-11.981-32.128a14.087,14.087,0,0,1-8.827-7.316c-2.052-4.518-.9-9.259,1.844-12.945C-457.457,594.2-458.183,571.722-456.393,559.318Z" transform="translate(457.189 -468.466)" fill="#fff"/>
        <path id="Path_394" data-name="Path 394" d="M-448.86,567.025a29.717,29.717,0,0,0,7.486,4.406,11.43,11.43,0,0,0,4.283,11.922,14.954,14.954,0,0,0,3.6,2.078c-2.934,6.838-2.212,15.589,3.438,20.782,5.378,4.944,14.028,7.5,20.617,3.613,3.221,11.161,19.67,19.584,25.159,6.562.108-.252.183-.525.279-.786a21.62,21.62,0,0,0,10.379,5.763c9.472,2.052,18.132-4.162,22.541-12.278,3.8-6.99.51-14.321-4.52-20.035a12.277,12.277,0,0,0,1.867-1.341c12.135-10.608,2.241-27.8-8.364-35.4a20.584,20.584,0,0,0,13.045-4.729c9.287-7.287,12.263-18.253,8.461-28.254a27.625,27.625,0,0,1,9.134,13.923c2.73,10.764.052,19.665-10.065,24.693-.621.31-1.253.59-1.892.848a23.338,23.338,0,0,1,6.564,10.436c1.971,7.773-1.248,16.5-9.032,19.4-.268.1-.542.168-.812.249A31.558,31.558,0,0,1-336.181,602.3c5.585,13.032-4.11,24.39-15.217,29.751-11.873,5.73-26.328,1.433-35.331-6.959-.077.284-.133.567-.235.853-1.477,4.091-6.12,6.408-10.246,6.323-4.434-.091-7.789-2.8-9.708-6.436a37.961,37.961,0,0,1-24.227-2.745c-12.822-6.1-17.757-21.117-11.981-32.128a14.087,14.087,0,0,1-8.827-7.316c-2.052-4.518-.9-9.259,1.844-12.945a34.917,34.917,0,0,1-5.323-11.212A30.074,30.074,0,0,0-448.86,567.025Z" transform="translate(458.387 -433.765)" fill="#bce6fb" opacity="0.5"/>
      </g>
      <path id="Path_395" data-name="Path 395" d="M-327.913,502.5c27.369,6.369,43.312,31.035,58.4,52.675A200.107,200.107,0,0,0-247.3,582.358c1.761,2.242,3.573,4.451,5.477,6.6a187.578,187.578,0,0,0,29.63,26.807A156.372,156.372,0,0,1-228.88,603.6c-13.708-11.508-24.205-26.059-36.423-39.045a300.319,300.319,0,0,0-39.562-35.535c-13.812-10.245-29.025-15.769-46.3-15.436-11.414.222-26.924,2.846-36.334,10.916C-376.567,503.672-349.507,497.471-327.913,502.5Z" transform="translate(504.728 -446.377)" fill="#bce6fb" opacity="0.5"/>
    </g>
    <g id="Group_276" data-name="Group 276" transform="translate(-45.355 479.874)">
      <g id="Group_275" data-name="Group 275">
        <path id="Path_396" data-name="Path 396" d="M-211.709,547.82c2.861-19.9,23.45-37.945,43.47-38.339a19.954,19.954,0,0,1,5.728-9.345c4.337-3.787,10.191-6.7,16.028-6.441a22.676,22.676,0,0,1,9.155,2.012c.153.077.276.17.419.251a21.684,21.684,0,0,1-1.331-6.9c-.264-9.895,12.595-13.834,20.094-15.478,25.211-5.521,55.477,7.878,74.784,23.643,24.858,20.3,47.085,45.6,65.481,71.868,16.055,22.922,36.351,51.245,63.328,63.437a30.751,30.751,0,0,1,9.713,3.682c3.311,2.145-43.929-4.4-78.262-33.222C5.5,593.421-3.221,581.326-13.377,570.533A249.5,249.5,0,0,0-46.257,541c-11.481-8.515-24.123-13.106-38.485-12.828-10.983.212-26.548,3.083-33.5,12.578,5.385,3.147,9.876,8.35,11.375,14.253,2.269,8.948.042,16.344-8.366,20.523q-.775.386-1.573.7a19.4,19.4,0,0,1,5.455,8.673c1.638,6.461-1.036,13.712-7.506,16.126-.224.082-.451.14-.676.207a26.229,26.229,0,0,1,8.734,11.153c4.641,10.83-3.417,20.27-12.648,24.727-9.868,4.762-21.882,1.191-29.364-5.783-.066.235-.111.471-.2.708-1.226,3.4-5.085,5.326-8.515,5.255a9.333,9.333,0,0,1-8.069-5.349,31.547,31.547,0,0,1-20.136-2.281c-10.655-5.072-14.758-17.55-9.957-26.7a11.715,11.715,0,0,1-7.336-6.083c-1.7-3.755-.745-7.694,1.532-10.758C-212.592,576.816-213.2,558.13-211.709,547.82Z" transform="translate(212.37 -472.311)" fill="#fff"/>
        <path id="Path_397" data-name="Path 397" d="M-205.446,554.226a24.653,24.653,0,0,0,6.221,3.661,9.5,9.5,0,0,0,3.561,9.91,12.417,12.417,0,0,0,2.993,1.728c-2.439,5.682-1.839,12.956,2.856,17.273,4.471,4.108,11.661,6.236,17.137,3,2.676,9.276,16.348,16.277,20.91,5.454.089-.21.153-.437.234-.653a17.959,17.959,0,0,0,8.626,4.789c7.873,1.706,15.069-3.459,18.733-10.206,3.159-5.809.426-11.9-3.755-16.65a10.284,10.284,0,0,0,1.551-1.114c10.086-8.818,1.862-23.1-6.951-29.418a17.108,17.108,0,0,0,10.842-3.931c7.72-6.056,10.192-15.172,7.032-23.483a22.977,22.977,0,0,1,7.593,11.573c2.269,8.948.042,16.344-8.366,20.523q-.775.386-1.573.7a19.4,19.4,0,0,1,5.455,8.673c1.638,6.461-1.036,13.712-7.506,16.126-.224.082-.451.14-.676.207a26.229,26.229,0,0,1,8.734,11.153c4.641,10.83-3.417,20.27-12.648,24.727-9.868,4.762-21.882,1.191-29.364-5.783-.066.235-.111.471-.2.708-1.226,3.4-5.085,5.326-8.515,5.255a9.333,9.333,0,0,1-8.069-5.349,31.547,31.547,0,0,1-20.136-2.281c-10.655-5.072-14.758-17.55-9.957-26.7a11.715,11.715,0,0,1-7.336-6.083c-1.7-3.755-.745-7.694,1.532-10.758a29.009,29.009,0,0,1-4.424-9.318A25,25,0,0,0-205.446,554.226Z" transform="translate(213.366 -443.47)" fill="#bce6fb" opacity="0.5"/>
      </g>
      <path id="Path_398" data-name="Path 398" d="M-104.923,500.594c22.747,5.294,36,25.795,48.535,43.781a166.283,166.283,0,0,0,18.465,22.6c1.464,1.864,2.969,3.7,4.552,5.486A155.817,155.817,0,0,0-8.744,594.737a129.834,129.834,0,0,1-13.871-10.11c-11.393-9.565-20.117-21.66-30.273-32.453a249.5,249.5,0,0,0-32.88-29.534c-11.481-8.515-24.123-13.106-38.485-12.828-9.488.183-22.378,2.365-30.2,9.072C-145.361,501.572-122.872,496.418-104.923,500.594Z" transform="translate(251.881 -453.952)" fill="#bce6fb" opacity="0.5"/>
    </g>
  </g>
</svg>
